G04 DesignSpark PCB PRO Gerber Version 10.0 Build 5299*
G04 #@! TF.Part,Single*
G04 #@! TF.FileFunction,Copper,L2,Bot*
G04 #@! TF.FilePolarity,Positive*
%FSLAX35Y35*%
%MOIN*%
G04 #@! TA.AperFunction,ComponentPad*
%ADD74O,0.06000X0.09937*%
%ADD132R,0.04449X0.04449*%
G04 #@! TD.AperFunction*
%ADD10C,0.00500*%
%ADD22C,0.00602*%
%ADD24C,0.01000*%
%ADD23C,0.01500*%
%ADD25C,0.02500*%
G04 #@! TA.AperFunction,ViaPad*
%ADD27C,0.02677*%
%ADD26C,0.03200*%
G04 #@! TA.AperFunction,ComponentPad*
%ADD133C,0.04449*%
%ADD123C,0.05276*%
%ADD28C,0.05906*%
%ADD29C,0.18898*%
G04 #@! TA.AperFunction,SMDPad,CuDef*
%ADD72R,0.10236X0.06693*%
G04 #@! TD.AperFunction*
X0Y0D02*
D02*
D10*
X39293Y302943D02*
Y123885D01*
X45721Y117457D01*
X89841D01*
Y120260D01*
G75*
G02*
X91091Y121510I1250J0D01*
G01*
X180552D01*
G75*
G02*
X181802Y120260I0J-1250D01*
G01*
Y117457D01*
X224779D01*
X231207Y123885D01*
Y302943D01*
X224779Y309370D01*
X45721D01*
X39293Y302943D01*
X56882Y300027D02*
G75*
G02*
X71867I7493J0D01*
G01*
G75*
G02*
X56882I-7493J0D01*
G01*
X77133Y225516D02*
G75*
G02*
X79941Y223414I617J-2102D01*
G01*
G75*
G02*
X77133Y221311I-2191J0D01*
G01*
X75276D01*
Y219215D01*
X63335D01*
Y227613D01*
X75276D01*
Y225516D01*
X77133D01*
Y235516D02*
G75*
G02*
X79941Y233414I617J-2102D01*
G01*
G75*
G02*
X77133Y231311I-2191J0D01*
G01*
X75276D01*
Y229215D01*
X63335D01*
Y237613D01*
X75276D01*
Y235516D01*
X77133D01*
Y245516D02*
G75*
G02*
X79941Y243414I617J-2102D01*
G01*
G75*
G02*
X77133Y241311I-2191J0D01*
G01*
X75276D01*
Y239215D01*
X63335D01*
Y247613D01*
X75276D01*
Y245516D01*
X77133D01*
Y255516D02*
G75*
G02*
X79941Y253414I617J-2102D01*
G01*
G75*
G02*
X77133Y251311I-2191J0D01*
G01*
X75276D01*
Y249215D01*
X63335D01*
Y257613D01*
X75276D01*
Y255516D01*
X77133D01*
X63335Y267613D02*
X75276D01*
Y259215D01*
X63335D01*
Y267613D01*
X75887Y274567D02*
G75*
G02*
X79941Y273414I1863J-1154D01*
G01*
G75*
G02*
X75887Y272260I-2191J0D01*
G01*
X75276D01*
Y269215D01*
X63335D01*
Y277613D01*
X75276D01*
Y274567D01*
X75887D01*
X63335Y287613D02*
X75276D01*
Y279215D01*
X63335D01*
Y287613D01*
X180993Y170359D02*
G75*
G02*
X181333Y169542I-814J-817D01*
G01*
Y159664D01*
G75*
G02*
X180993Y158847I-1154J0D01*
G01*
X178496Y156350D01*
G75*
G02*
X177679Y156010I-817J814D01*
G01*
X168224D01*
X166404Y154190D01*
Y145914D01*
G75*
G02*
X166064Y145097I-1154J0D01*
G01*
X163567Y142600D01*
G75*
G02*
X162750Y142260I-817J814D01*
G01*
X150128D01*
X148253Y140385D01*
X147154Y136286D01*
G75*
G02*
X139663Y137233I-3685J947D01*
G01*
G75*
G02*
X142522Y140918I3805J0D01*
G01*
X146621Y142017D01*
X148833Y144228D01*
G75*
G02*
X149650Y144567I817J-814D01*
G01*
X162272D01*
X164096Y146392D01*
Y154668D01*
G75*
G02*
X164100Y154765I1153J2D01*
G01*
G75*
G02*
X164000Y154760I-100J1148D01*
G01*
X150728D01*
X150016Y154048D01*
Y154026D01*
X152141Y150345D01*
G75*
G02*
X148862Y144609I-3279J-1931D01*
G01*
G75*
G02*
X145583Y150345I0J3805D01*
G01*
X147709Y154026D01*
Y154526D01*
G75*
G02*
X148048Y155343I1154J0D01*
G01*
X148715Y156010D01*
X148228D01*
X147317Y155100D01*
G75*
G02*
X146500Y154760I-817J814D01*
G01*
X140728D01*
X139508Y153541D01*
X141354Y150345D01*
G75*
G02*
X138075Y144609I-3279J-1931D01*
G01*
G75*
G02*
X134796Y150345I0J3805D01*
G01*
X137006Y154172D01*
G75*
G02*
X137261Y154556I1069J-434D01*
G01*
X137465Y154760D01*
X135728D01*
X133835Y152867D01*
Y142844D01*
X135960Y139164D01*
G75*
G02*
X132681Y133428I-3279J-1931D01*
G01*
G75*
G02*
X129402Y139164I0J3805D01*
G01*
X131528Y142844D01*
Y153345D01*
G75*
G02*
X131867Y154162I1154J0D01*
G01*
X133715Y156010D01*
X129478D01*
X128441Y154973D01*
Y154026D01*
X130566Y150345D01*
G75*
G02*
X127287Y144609I-3279J-1931D01*
G01*
G75*
G02*
X124009Y150345I0J3805D01*
G01*
X126134Y154026D01*
Y155451D01*
G75*
G02*
X126473Y156268I1154J0D01*
G01*
X127465Y157260D01*
X126978D01*
X123047Y153330D01*
Y142844D01*
X125172Y139164D01*
G75*
G02*
X121894Y133428I-3279J-1931D01*
G01*
G75*
G02*
X118615Y139164I0J3805D01*
G01*
X120740Y142844D01*
Y153807D01*
G75*
G02*
X121080Y154624I1154J0D01*
G01*
X122465Y156010D01*
X119478D01*
X117654Y154186D01*
Y154026D01*
X119779Y150345D01*
G75*
G02*
X116500Y144609I-3279J-1931D01*
G01*
G75*
G02*
X113221Y150345I0J3805D01*
G01*
X115346Y154026D01*
Y154664D01*
G75*
G02*
X115686Y155481I1154J0D01*
G01*
X118183Y157978D01*
G75*
G02*
X119000Y158317I817J-814D01*
G01*
X122272D01*
X124096Y160142D01*
Y160932D01*
X122231Y164162D01*
G75*
G02*
X121883Y164994I3019J1752D01*
G01*
X121879Y165010D01*
X120911Y168622D01*
X118460Y171073D01*
G75*
G02*
X118122Y171889I816J816D01*
G01*
Y178878D01*
G75*
G02*
X111398Y181445I-2872J2567D01*
G01*
Y185382D01*
G75*
G02*
X118122Y187950I3852J0D01*
G01*
Y238878D01*
G75*
G02*
X111398Y241445I-2872J2567D01*
G01*
Y245382D01*
G75*
G02*
X118122Y247950I3852J0D01*
G01*
Y252437D01*
G75*
G02*
Y252439I364J1D01*
G01*
Y252439D01*
G75*
G02*
X118459Y253254I1154J0D01*
G01*
X119095Y253891D01*
Y263631D01*
X117598Y266224D01*
G75*
G02*
X117173Y267784I2653J1559D01*
G01*
G75*
G02*
X123327I3077J0D01*
G01*
G75*
G02*
X122902Y266224I-3077J0D01*
G01*
X121402Y263626D01*
Y253416D01*
G75*
G02*
Y253414I-364J-1D01*
G01*
Y253414D01*
G75*
G02*
X121154Y252699I-1154J0D01*
G01*
X125346Y256892D01*
Y277164D01*
G75*
G02*
X125686Y277981I1154J0D01*
G01*
X129096Y281392D01*
Y294889D01*
X127598Y297484D01*
G75*
G02*
X127173Y299044I2653J1559D01*
G01*
G75*
G02*
X133327I3077J0D01*
G01*
G75*
G02*
X132902Y297484I-3077J0D01*
G01*
X131404Y294889D01*
Y280914D01*
G75*
G02*
X131064Y280097I-1154J0D01*
G01*
X127654Y276686D01*
Y269435D01*
G75*
G02*
X133327Y267784I2596J-1651D01*
G01*
G75*
G02*
X127654Y266133I-3077J0D01*
G01*
Y256414D01*
G75*
G02*
X127314Y255597I-1154J0D01*
G01*
X121904Y250186D01*
Y247290D01*
G75*
G02*
X128096Y247979I3347J-1908D01*
G01*
Y251164D01*
G75*
G02*
X128436Y251981I1154J0D01*
G01*
X139096Y262642D01*
Y263629D01*
X137598Y266224D01*
G75*
G02*
X137173Y267784I2653J1559D01*
G01*
G75*
G02*
X143327I3077J0D01*
G01*
G75*
G02*
X142902Y266224I-3077J0D01*
G01*
X141404Y263629D01*
Y262449D01*
X144096Y265142D01*
Y277164D01*
G75*
G02*
X144436Y277981I1154J0D01*
G01*
X149096Y282642D01*
Y294889D01*
X147598Y297484D01*
G75*
G02*
X147173Y299044I2653J1559D01*
G01*
G75*
G02*
X153327I3077J0D01*
G01*
G75*
G02*
X152902Y297484I-3077J0D01*
G01*
X151404Y294889D01*
Y282164D01*
G75*
G02*
X151064Y281347I-1154J0D01*
G01*
X146404Y276686D01*
Y264664D01*
G75*
G02*
X146064Y263847I-1154J0D01*
G01*
X131904Y249686D01*
Y247290D01*
G75*
G02*
X138096Y247979I3347J-1908D01*
G01*
Y250664D01*
G75*
G02*
X138436Y251481I1154J0D01*
G01*
X142433Y255478D01*
G75*
G02*
X143250Y255817I817J-814D01*
G01*
X165022D01*
X169096Y259892D01*
Y263629D01*
X167598Y266224D01*
G75*
G02*
X172846Y269435I2652J1559D01*
G01*
Y276686D01*
X169436Y280097D01*
G75*
G02*
X169096Y280914I814J817D01*
G01*
Y294889D01*
X167598Y297484D01*
G75*
G02*
X167173Y299044I2653J1559D01*
G01*
G75*
G02*
X173327I3077J0D01*
G01*
G75*
G02*
X172902Y297484I-3077J0D01*
G01*
X171404Y294889D01*
Y281392D01*
X174814Y277981D01*
G75*
G02*
X175154Y277164I-814J-817D01*
G01*
Y259664D01*
G75*
G02*
X174814Y258847I-1154J0D01*
G01*
X168567Y252600D01*
G75*
G02*
X167750Y252260I-817J814D01*
G01*
X144228D01*
X141904Y249936D01*
Y247291D01*
G75*
G02*
X149102Y245382I3346J-1908D01*
G01*
Y241445D01*
G75*
G02*
X148594Y239533I-3853J0D01*
G01*
G75*
G02*
X148586Y239519I-1081J609D01*
G01*
X146404Y235739D01*
Y218892D01*
X151064Y214231D01*
G75*
G02*
X151404Y213414I-814J-817D01*
G01*
Y185588D01*
G75*
G02*
X159103Y185382I3847J-206D01*
G01*
Y181445D01*
G75*
G02*
X157204Y178125I-3852J0D01*
G01*
X163297D01*
G75*
G02*
X161398Y181445I1953J3320D01*
G01*
Y185382D01*
G75*
G02*
X169103I3852J0D01*
G01*
Y181445D01*
G75*
G02*
X167204Y178125I-3852J0D01*
G01*
X172750D01*
G75*
G02*
X173567Y177785I0J-1154D01*
G01*
X180993Y170359D01*
X147173Y267784D02*
G75*
G02*
X153327I3077J0D01*
G01*
G75*
G02*
X147173I-3077J0D01*
G01*
X171398Y245382D02*
G75*
G02*
X179103I3852J0D01*
G01*
Y241445D01*
G75*
G02*
X171398I-3852J0D01*
G01*
Y245382D01*
X151398D02*
G75*
G02*
X159103I3852J0D01*
G01*
Y241445D01*
G75*
G02*
X151398I-3852J0D01*
G01*
Y245382D01*
X188571Y187335D02*
G75*
G02*
X189102Y185382I-3321J-1953D01*
G01*
Y181445D01*
G75*
G02*
X181398I-3852J0D01*
G01*
Y185382D01*
G75*
G02*
X181929Y187335I3853J0D01*
G01*
X184096Y191089D01*
Y213436D01*
X176376Y221156D01*
G75*
G02*
X176402Y220914I-1128J-242D01*
G01*
Y191091D01*
X178571Y187335D01*
G75*
G02*
X179102Y185382I-3321J-1953D01*
G01*
Y181445D01*
G75*
G02*
X171398I-3852J0D01*
G01*
Y185382D01*
G75*
G02*
X171929Y187335I3853J0D01*
G01*
X174095Y191086D01*
Y220436D01*
X170272Y224260D01*
X156750D01*
G75*
G02*
X155933Y224600I0J1154D01*
G01*
X151120Y229413D01*
X149710Y229791D01*
G75*
G02*
X148059Y231914I540J2123D01*
G01*
G75*
G02*
X152373Y232454I2191J0D01*
G01*
X152751Y231044D01*
X157228Y226567D01*
X157522D01*
G75*
G02*
X160326Y229822I1728J1346D01*
G01*
G75*
G02*
X160345Y229811I-575J-1044D01*
G01*
X161634Y229067D01*
X171250D01*
G75*
G02*
X172067Y228728I0J-1154D01*
G01*
X186064Y214731D01*
G75*
G02*
X186404Y213914I-814J-817D01*
G01*
Y191089D01*
X188571Y187335D01*
X181362Y165914D02*
G75*
G02*
X189138I3888J0D01*
G01*
G75*
G02*
X181362I-3888J0D01*
G01*
X161398Y245382D02*
G75*
G02*
X169103I3852J0D01*
G01*
Y241445D01*
G75*
G02*
X161398I-3852J0D01*
G01*
Y245382D01*
X187268Y153124D02*
G75*
G02*
X197569Y142823I0J-10301D01*
G01*
G75*
G02*
X187268Y132522I-10301J0D01*
G01*
G75*
G02*
X176967Y142823I0J10301D01*
G01*
G75*
G02*
X187268Y153124I10301J0D01*
G01*
X150053Y137233D02*
G75*
G02*
X158459I4203J0D01*
G01*
G75*
G02*
X150053I-4203J0D01*
G01*
X159650Y152219D02*
G75*
G02*
X163455Y148414I0J-3805D01*
G01*
G75*
G02*
X159650Y144609I-3805J0D01*
G01*
G75*
G02*
X155844Y148414I0J3805D01*
G01*
G75*
G02*
X159650Y152219I3805J0D01*
G01*
X111760Y165914D02*
G75*
G02*
X118740I3490J0D01*
G01*
G75*
G02*
X111760I-3490J0D01*
G01*
X116776Y299044D02*
G75*
G02*
X123724I3474J0D01*
G01*
G75*
G02*
X116776I-3474J0D01*
G01*
X137173D02*
G75*
G02*
X143327I3077J0D01*
G01*
G75*
G02*
X137173I-3077J0D01*
G01*
X157173Y267784D02*
G75*
G02*
X163327I3077J0D01*
G01*
G75*
G02*
X157173I-3077J0D01*
G01*
Y299044D02*
G75*
G02*
X163327I3077J0D01*
G01*
G75*
G02*
X157173I-3077J0D01*
G01*
X192352Y248491D02*
G75*
G02*
X199500Y245382I2898J-3109D01*
G01*
Y241445D01*
G75*
G02*
X192352Y238337I-4250J0D01*
G01*
Y213035D01*
X196736Y208651D01*
G75*
G02*
X197352Y207164I-1486J-1487D01*
G01*
Y189446D01*
X198571Y187335D01*
G75*
G02*
X199102Y185383I-3322J-1952D01*
G01*
Y181445D01*
G75*
G02*
X191398I-3852J0D01*
G01*
Y185383D01*
G75*
G02*
X191929Y187335I3853J0D01*
G01*
X193148Y189446D01*
Y206293D01*
X188764Y210677D01*
G75*
G02*
X188148Y212164I1486J1487D01*
G01*
Y238906D01*
G75*
G02*
X181398Y241445I-2897J2539D01*
G01*
Y245382D01*
G75*
G02*
X188148Y247921I3852J0D01*
G01*
Y258793D01*
X183764Y263177D01*
G75*
G02*
X183148Y264664I1486J1487D01*
G01*
Y266749D01*
G75*
G02*
X177654Y266133I-2898J1035D01*
G01*
Y260142D01*
X179478Y258317D01*
X181616D01*
X182905Y259061D01*
G75*
G02*
X182924Y259072I594J-1034D01*
G01*
G75*
G02*
X186191Y257164I1076J-1908D01*
G01*
G75*
G02*
X182924Y255256I-2191J0D01*
G01*
G75*
G02*
X182905Y255266I575J1044D01*
G01*
X181616Y256010D01*
X179000D01*
G75*
G02*
X178183Y256350I0J1154D01*
G01*
X175686Y258847D01*
G75*
G02*
X175346Y259664I814J817D01*
G01*
Y277164D01*
G75*
G02*
X175686Y277981I1154J0D01*
G01*
X179096Y281392D01*
Y294889D01*
X177598Y297484D01*
G75*
G02*
X177173Y299044I2653J1559D01*
G01*
G75*
G02*
X183327I3077J0D01*
G01*
G75*
G02*
X182902Y297484I-3077J0D01*
G01*
X181404Y294889D01*
Y280914D01*
G75*
G02*
X181064Y280097I-1154J0D01*
G01*
X177654Y276686D01*
Y269435D01*
G75*
G02*
X183148Y268819I2596J-1651D01*
G01*
Y270914D01*
G75*
G02*
X183764Y272401I2102J0D01*
G01*
X188148Y276785D01*
Y294568D01*
X187455Y295768D01*
G75*
G02*
X187354Y295967I1822J1052D01*
G01*
X187173D01*
Y296793D01*
G75*
G02*
Y296806I2243J7D01*
G01*
G75*
G02*
Y296819I2177J7D01*
G01*
G75*
G02*
Y296833I2243J7D01*
G01*
G75*
G02*
Y296846I2177J7D01*
G01*
Y302120D01*
X193327D01*
Y296846D01*
G75*
G02*
Y296833I-2177J-6D01*
G01*
G75*
G02*
Y296819I-2243J-7D01*
G01*
G75*
G02*
Y296806I-2177J-6D01*
G01*
G75*
G02*
Y296793I-2243J-7D01*
G01*
Y295967D01*
X193146D01*
G75*
G02*
X193045Y295768I-1923J854D01*
G01*
X192352Y294568D01*
Y275914D01*
G75*
G02*
X191736Y274427I-2102J0D01*
G01*
X187352Y270043D01*
Y268819D01*
G75*
G02*
X193327Y267784I2898J-1035D01*
G01*
G75*
G02*
X187352Y266749I-3077J0D01*
G01*
Y265535D01*
X191736Y261151D01*
G75*
G02*
X192352Y259664I-1486J-1487D01*
G01*
Y248491D01*
X191760Y165914D02*
G75*
G02*
X198740I3490J0D01*
G01*
G75*
G02*
X191760I-3490J0D01*
G01*
X198631Y126925D02*
G75*
G02*
X213616I7493J0D01*
G01*
G75*
G02*
X198631I-7493J0D01*
G01*
X198624Y300027D02*
G75*
G02*
X213609I7493J0D01*
G01*
G75*
G02*
X198624I-7493J0D01*
G01*
X201000Y245382D02*
G75*
G02*
X209500I4250J0D01*
G01*
Y241445D01*
G75*
G02*
X201000I-4250J0D01*
G01*
Y245382D01*
X201398Y185382D02*
G75*
G02*
X209103I3852J0D01*
G01*
Y181445D01*
G75*
G02*
X201398I-3852J0D01*
G01*
Y185382D01*
X211000D02*
G75*
G02*
X219500I4250J0D01*
G01*
Y181445D01*
G75*
G02*
X211000I-4250J0D01*
G01*
Y185382D01*
X214246Y126925D02*
G75*
G02*
X229231I7493J0D01*
G01*
G75*
G02*
X214246I-7493J0D01*
G01*
X211398Y245382D02*
G75*
G02*
X219103I3852J0D01*
G01*
Y241445D01*
G75*
G02*
X211398I-3852J0D01*
G01*
Y245382D01*
X214371Y300277D02*
G75*
G02*
X229356I7493J0D01*
G01*
G75*
G02*
X214371I-7493J0D01*
G01*
X221398Y185382D02*
G75*
G02*
X229103I3852J0D01*
G01*
Y181445D01*
G75*
G02*
X221398I-3852J0D01*
G01*
Y185382D01*
Y245382D02*
G75*
G02*
X229103I3852J0D01*
G01*
Y241445D01*
G75*
G02*
X221398I-3852J0D01*
G01*
Y245382D01*
X57563Y279788D02*
G75*
G02*
X63268Y278414I2687J-1374D01*
G01*
G75*
G02*
X57563Y277039I-3018J0D01*
G01*
Y269274D01*
G75*
G02*
X63071Y268414I2687J-860D01*
G01*
G75*
G02*
X57563Y267554I-2821J0D01*
G01*
Y258817D01*
X44827D01*
Y261869D01*
G75*
G02*
X40161Y263414I-2077J1545D01*
G01*
G75*
G02*
X44827Y264959I2589J0D01*
G01*
Y268010D01*
X57458D01*
G75*
G02*
X57429Y268414I2792J404D01*
G01*
G75*
G02*
X57458Y268817I2821J-1D01*
G01*
X44827D01*
Y271869D01*
G75*
G02*
X40161Y273414I-2077J1545D01*
G01*
G75*
G02*
X44827Y274959I2589J0D01*
G01*
Y278010D01*
X57259D01*
G75*
G02*
Y278817I2991J404D01*
G01*
X44827D01*
Y281869D01*
G75*
G02*
X40161Y283414I-2077J1545D01*
G01*
G75*
G02*
X44827Y284959I2589J0D01*
G01*
Y288010D01*
X57563D01*
Y279788D01*
X45225Y237613D02*
X57166D01*
Y229215D01*
X45225D01*
Y237613D01*
Y247613D02*
X57166D01*
Y239215D01*
X45225D01*
Y247613D01*
Y257613D02*
X57166D01*
Y249215D01*
X45225D01*
Y257613D01*
Y147613D02*
X57166D01*
Y139215D01*
X45225D01*
Y141311D01*
X43367D01*
G75*
G02*
X40559Y143414I-617J2102D01*
G01*
G75*
G02*
X43367Y145516I2191J0D01*
G01*
X45225D01*
Y147613D01*
X56869Y126925D02*
G75*
G02*
X71854I7493J0D01*
G01*
G75*
G02*
X56869I-7493J0D01*
G01*
X41144D02*
G75*
G02*
X56129I7493J0D01*
G01*
G75*
G02*
X41144I-7493J0D01*
G01*
X45225Y157613D02*
X57166D01*
Y149215D01*
X45225D01*
Y151311D01*
X43367D01*
G75*
G02*
X40559Y153414I-617J2102D01*
G01*
G75*
G02*
X43367Y155516I2191J0D01*
G01*
X45225D01*
Y157613D01*
Y167613D02*
X57166D01*
Y159215D01*
X45225D01*
Y161311D01*
X43367D01*
G75*
G02*
X40559Y163414I-617J2102D01*
G01*
G75*
G02*
X43367Y165516I2191J0D01*
G01*
X45225D01*
Y167613D01*
Y177613D02*
X57166D01*
Y169215D01*
X45225D01*
Y171311D01*
X43367D01*
G75*
G02*
X40559Y173414I-617J2102D01*
G01*
G75*
G02*
X43367Y175516I2191J0D01*
G01*
X45225D01*
Y177613D01*
Y187613D02*
X57166D01*
Y179215D01*
X45225D01*
Y181311D01*
X43367D01*
G75*
G02*
X40559Y183414I-617J2102D01*
G01*
G75*
G02*
X43367Y185516I2191J0D01*
G01*
X45225D01*
Y187613D01*
Y197613D02*
X57166D01*
Y189215D01*
X45225D01*
Y191311D01*
X43367D01*
G75*
G02*
X40559Y193414I-617J2102D01*
G01*
G75*
G02*
X43367Y195516I2191J0D01*
G01*
X45225D01*
Y197613D01*
Y217613D02*
X57166D01*
Y209215D01*
X45225D01*
Y211311D01*
X43367D01*
G75*
G02*
X40559Y213414I-617J2102D01*
G01*
G75*
G02*
X43367Y215516I2191J0D01*
G01*
X45225D01*
Y217613D01*
X108674Y214072D02*
G75*
G02*
X111941Y212164I1076J-1908D01*
G01*
G75*
G02*
X108674Y210256I-2191J0D01*
G01*
G75*
G02*
X108655Y210266I575J1044D01*
G01*
X107366Y211010D01*
X94478D01*
X86067Y202600D01*
G75*
G02*
X85250Y202260I-817J814D01*
G01*
X80033D01*
G75*
G02*
X79722Y202026I-1113J1154D01*
G01*
X75276Y199459D01*
Y199215D01*
X74442D01*
G75*
G02*
X74405I-19J1611D01*
G01*
X63335D01*
Y203617D01*
X62623Y202905D01*
G75*
G02*
X62164Y202415I-1035J509D01*
G01*
X57165Y199529D01*
Y199215D01*
X45224D01*
Y207613D01*
X57165D01*
Y207299D01*
X61342Y204887D01*
X61596Y205142D01*
Y207164D01*
G75*
G02*
X61936Y207981I1154J0D01*
G01*
X63183Y209228D01*
G75*
G02*
X63335Y209356I817J-814D01*
G01*
Y217613D01*
X75276D01*
Y215516D01*
X77133D01*
G75*
G02*
X79941Y213414I617J-2102D01*
G01*
G75*
G02*
X77133Y211311I-2191J0D01*
G01*
X75276D01*
Y209567D01*
X81022D01*
X89433Y217978D01*
G75*
G02*
X90250Y218317I817J-814D01*
G01*
X104116D01*
X105405Y219061D01*
G75*
G02*
X105424Y219072I594J-1034D01*
G01*
G75*
G02*
X108691Y217164I1076J-1908D01*
G01*
G75*
G02*
X105424Y215256I-2191J0D01*
G01*
G75*
G02*
X105405Y215266I575J1044D01*
G01*
X104116Y216010D01*
X90728D01*
X82317Y207600D01*
G75*
G02*
X81500Y207260I-817J814D01*
G01*
X75463D01*
X79722Y204802D01*
G75*
G02*
X80033Y204567I-802J-1388D01*
G01*
X84772D01*
X93183Y212978D01*
G75*
G02*
X94000Y213317I817J-814D01*
G01*
X107366D01*
X108655Y214061D01*
G75*
G02*
X108674Y214072I594J-1034D01*
G01*
X101674Y210322D02*
G75*
G02*
X104941Y208414I1076J-1908D01*
G01*
G75*
G02*
X101674Y206506I-2191J0D01*
G01*
G75*
G02*
X101655Y206516I575J1044D01*
G01*
X100366Y207260D01*
X99478D01*
X84817Y192600D01*
G75*
G02*
X84000Y192260I-817J814D01*
G01*
X80006D01*
X75276Y189529D01*
Y189215D01*
X63335D01*
Y197613D01*
X75276D01*
Y197299D01*
X80006Y194567D01*
X83522D01*
X98183Y209228D01*
G75*
G02*
X99000Y209567I817J-814D01*
G01*
X100366D01*
X101655Y210311D01*
G75*
G02*
X101674Y210322I594J-1034D01*
G01*
X77133Y155516D02*
G75*
G02*
X79941Y153414I617J-2102D01*
G01*
G75*
G02*
X77133Y151311I-2191J0D01*
G01*
X75276D01*
Y149215D01*
X63335D01*
Y157613D01*
X75276D01*
Y155516D01*
X77133D01*
X88882Y153124D02*
G75*
G02*
X99183Y142823I0J-10301D01*
G01*
G75*
G02*
X88882Y132522I-10301J0D01*
G01*
G75*
G02*
X78581Y142823I0J10301D01*
G01*
G75*
G02*
X88882Y153124I10301J0D01*
G01*
X77133Y165516D02*
G75*
G02*
X79941Y163414I617J-2102D01*
G01*
G75*
G02*
X77133Y161311I-2191J0D01*
G01*
X75276D01*
Y159215D01*
X63335D01*
Y167613D01*
X75276D01*
Y165516D01*
X77133D01*
Y175516D02*
G75*
G02*
X79941Y173414I617J-2102D01*
G01*
G75*
G02*
X77133Y171311I-2191J0D01*
G01*
X75276D01*
Y169215D01*
X63335D01*
Y177613D01*
X75276D01*
Y175516D01*
X77133D01*
Y185516D02*
G75*
G02*
X79941Y183414I617J-2102D01*
G01*
G75*
G02*
X77133Y181311I-2191J0D01*
G01*
X75276D01*
Y179215D01*
X63335D01*
Y187613D01*
X75276D01*
Y185516D01*
X77133D01*
X63335Y147613D02*
X75276D01*
Y139215D01*
X63335D01*
Y141311D01*
X60867D01*
G75*
G02*
X59530Y145483I-617J2102D01*
G01*
G75*
G02*
X57232Y148414I720J2931D01*
G01*
G75*
G02*
X63268I3018J0D01*
G01*
G75*
G02*
X61093Y145516I-3018J0D01*
G01*
X63335D01*
Y147613D01*
X57429Y158414D02*
G75*
G02*
X63071I2821J0D01*
G01*
G75*
G02*
X57429I-2821J0D01*
G01*
X45225Y227613D02*
X57166D01*
Y219215D01*
X45225D01*
Y221311D01*
X43367D01*
G75*
G02*
X40559Y223414I-617J2102D01*
G01*
G75*
G02*
X43367Y225516I2191J0D01*
G01*
X45225D01*
Y227613D01*
X41145Y300029D02*
G75*
G02*
X56130I7493J0D01*
G01*
G75*
G02*
X41145I-7493J0D01*
G01*
X39543Y126925D02*
G36*
X39543Y126925D02*
Y123635D01*
X45471Y117707D01*
X89841D01*
Y120260D01*
G75*
G02*
X91091Y121510I1250J0D01*
G01*
X180552D01*
G75*
G02*
X181802Y120260I0J-1250D01*
G01*
Y117707D01*
X225029D01*
X230957Y123635D01*
Y126925D01*
X229231D01*
G75*
G02*
X214246I-7493J0D01*
G01*
X213616D01*
G75*
G02*
X198631I-7493J0D01*
G01*
X71854D01*
G75*
G02*
X56869I-7493J0D01*
G01*
X56129D01*
G75*
G02*
X41144I-7493J0D01*
G01*
X39543D01*
G37*
Y137233D02*
G36*
X39543Y137233D02*
Y126925D01*
X41144D01*
G75*
G02*
X56129I7493J0D01*
G01*
X56869D01*
G75*
G02*
X71854I7493J0D01*
G01*
X198631D01*
G75*
G02*
X213616I7493J0D01*
G01*
X214246D01*
G75*
G02*
X229231I7493J0D01*
G01*
X230957D01*
Y137233D01*
X195920D01*
G75*
G02*
X187268Y132522I-8653J5591D01*
G01*
G75*
G02*
X178616Y137233I1J10302D01*
G01*
X158459D01*
G75*
G02*
X150053I-4203J0D01*
G01*
X147408D01*
X147154Y136286D01*
G75*
G02*
X139663Y137233I-3685J947D01*
G01*
X136486D01*
G75*
G02*
X132681Y133428I-3805J0D01*
G01*
G75*
G02*
X128876Y137233I0J3805D01*
G01*
X125699D01*
G75*
G02*
X121894Y133428I-3805J0D01*
G01*
G75*
G02*
X118089Y137233I0J3805D01*
G01*
X97534D01*
G75*
G02*
X88882Y132522I-8653J5591D01*
G01*
G75*
G02*
X80230Y137233I1J10302D01*
G01*
X39543D01*
G37*
Y142823D02*
G36*
X39543Y142823D02*
Y137233D01*
X80230D01*
G75*
G02*
X78581Y142823I8653J5591D01*
G01*
X75276D01*
Y139215D01*
X63335D01*
Y141311D01*
X60867D01*
G75*
G02*
X58140Y142823I-617J2102D01*
G01*
X57166D01*
Y139215D01*
X45225D01*
Y141311D01*
X43367D01*
G75*
G02*
X40640Y142823I-617J2102D01*
G01*
X39543D01*
G37*
X99183D02*
G36*
X99183Y142823D02*
G75*
G02*
X97534Y137233I-10302J0D01*
G01*
X118089D01*
G75*
G02*
X118615Y139164I3806J0D01*
G01*
X120728Y142823D01*
X99183D01*
G37*
X123059D02*
G36*
X123059Y142823D02*
X125172Y139164D01*
G75*
G02*
X125699Y137233I-3279J-1931D01*
G01*
X128876D01*
G75*
G02*
X129402Y139164I3806J0D01*
G01*
X131515Y142823D01*
X123059D01*
G37*
X133847D02*
G36*
X133847Y142823D02*
X135960Y139164D01*
G75*
G02*
X136486Y137233I-3279J-1931D01*
G01*
X139663D01*
G75*
G02*
X142522Y140918I3806J0D01*
G01*
X146621Y142017D01*
X147428Y142823D01*
X133847D01*
G37*
X148253Y140385D02*
G36*
X148253Y140385D02*
X147408Y137233D01*
X150053D01*
G75*
G02*
X158459I4203J0D01*
G01*
X178616D01*
G75*
G02*
X176967Y142823I8653J5591D01*
G01*
X163791D01*
X163567Y142600D01*
G75*
G02*
X162750Y142260I-817J814D01*
G01*
X150128D01*
X148253Y140385D01*
G37*
X197569Y142823D02*
G36*
X197569Y142823D02*
G75*
G02*
X195920Y137233I-10302J0D01*
G01*
X230957D01*
Y142823D01*
X197569D01*
G37*
X39543Y148414D02*
G36*
X39543Y148414D02*
Y142823D01*
X40640D01*
G75*
G02*
X40559Y143414I2110J591D01*
G01*
G75*
G02*
X43367Y145516I2191J0D01*
G01*
X45225D01*
Y147613D01*
X57166D01*
Y142823D01*
X58140D01*
G75*
G02*
X58059Y143414I2110J591D01*
G01*
G75*
G02*
X59530Y145483I2191J0D01*
G01*
G75*
G02*
X57232Y148413I719J2930D01*
G01*
Y148414D01*
X39543D01*
G37*
X63268D02*
G36*
X63268Y148414D02*
G75*
G02*
X61093Y145516I-3019J0D01*
G01*
X63335D01*
Y147613D01*
X75276D01*
Y142823D01*
X78581D01*
G75*
G02*
X80230Y148414I10302J0D01*
G01*
X63268D01*
G37*
X97534D02*
G36*
X97534Y148414D02*
G75*
G02*
X99183Y142823I-8653J-5591D01*
G01*
X120728D01*
X120740Y142844D01*
Y148414D01*
X120305D01*
G75*
G02*
X116500Y144609I-3805J0D01*
G01*
G75*
G02*
X112695Y148414I0J3805D01*
G01*
X97534D01*
G37*
X123047D02*
G36*
X123047Y148414D02*
Y142844D01*
X123059Y142823D01*
X131515D01*
X131528Y142844D01*
Y148414D01*
X131093D01*
G75*
G02*
X127287Y144609I-3805J0D01*
G01*
G75*
G02*
X123482Y148414I0J3805D01*
G01*
X123047D01*
G37*
X133835D02*
G36*
X133835Y148414D02*
Y142844D01*
X133847Y142823D01*
X147428D01*
X148833Y144228D01*
G75*
G02*
X149650Y144567I817J-814D01*
G01*
X162272D01*
X164096Y146392D01*
Y148414D01*
X163455D01*
G75*
G02*
X159650Y144609I-3805J0D01*
G01*
G75*
G02*
X155844Y148414I0J3805D01*
G01*
X152667D01*
G75*
G02*
X148862Y144609I-3805J0D01*
G01*
G75*
G02*
X145057Y148414I0J3805D01*
G01*
X141880D01*
G75*
G02*
X138075Y144609I-3805J0D01*
G01*
G75*
G02*
X134270Y148414I0J3805D01*
G01*
X133835D01*
G37*
X166064Y145097D02*
G36*
X166064Y145097D02*
X163791Y142823D01*
X176967D01*
G75*
G02*
X178616Y148414I10302J0D01*
G01*
X166404D01*
Y145914D01*
G75*
G02*
X166064Y145097I-1154J0D01*
G01*
G37*
X195920Y148414D02*
G36*
X195920Y148414D02*
G75*
G02*
X197569Y142823I-8653J-5591D01*
G01*
X230957D01*
Y148414D01*
X195920D01*
G37*
X39543Y153414D02*
G36*
X39543Y153414D02*
Y148414D01*
X57232D01*
G75*
G02*
X63268I3018J0D01*
G01*
X80230D01*
G75*
G02*
X88882Y153124I8653J-5591D01*
G01*
G75*
G02*
X97534Y148414I-1J-10302D01*
G01*
X112695D01*
G75*
G02*
X113221Y150345I3806J0D01*
G01*
X114993Y153414D01*
X79941D01*
G75*
G02*
X77133Y151311I-2191J0D01*
G01*
X75276D01*
Y149215D01*
X63335D01*
Y153414D01*
X57166D01*
Y149215D01*
X45225D01*
Y151311D01*
X43367D01*
G75*
G02*
X40559Y153414I-617J2102D01*
G01*
X39543D01*
G37*
X118007D02*
G36*
X118007Y153414D02*
X119779Y150345D01*
G75*
G02*
X120305Y148414I-3279J-1931D01*
G01*
X120740D01*
Y153414D01*
X118007D01*
G37*
X123047Y153330D02*
G36*
X123047Y153330D02*
Y148414D01*
X123482D01*
G75*
G02*
X124009Y150345I3806J0D01*
G01*
X125781Y153414D01*
X123131D01*
X123047Y153330D01*
G37*
X128794Y153414D02*
G36*
X128794Y153414D02*
X130566Y150345D01*
G75*
G02*
X131093Y148414I-3279J-1931D01*
G01*
X131528D01*
Y153345D01*
G75*
G02*
X131530Y153414I1154J2D01*
G01*
X128794D01*
G37*
X133835Y152867D02*
G36*
X133835Y152867D02*
Y148414D01*
X134270D01*
G75*
G02*
X134796Y150345I3806J0D01*
G01*
X136568Y153414D01*
X134381D01*
X133835Y152867D01*
G37*
X139581Y153414D02*
G36*
X139581Y153414D02*
X141354Y150345D01*
G75*
G02*
X141880Y148414I-3279J-1931D01*
G01*
X145057D01*
G75*
G02*
X145583Y150345I3806J0D01*
G01*
X147356Y153414D01*
X139581D01*
G37*
X150369D02*
G36*
X150369Y153414D02*
X152141Y150345D01*
G75*
G02*
X152667Y148414I-3279J-1931D01*
G01*
X155844D01*
G75*
G02*
X159650Y152219I3805J0D01*
G01*
G75*
G02*
X163455Y148414I0J-3805D01*
G01*
X164096D01*
Y153414D01*
X150369D01*
G37*
X166404D02*
G36*
X166404Y153414D02*
Y148414D01*
X178616D01*
G75*
G02*
X187268Y153124I8653J-5591D01*
G01*
G75*
G02*
X195920Y148414I-1J-10302D01*
G01*
X230957D01*
Y153414D01*
X166404D01*
G37*
X39543Y158414D02*
G36*
X39543Y158414D02*
Y153414D01*
X40559D01*
G75*
G02*
X43367Y155516I2191J0D01*
G01*
X45225D01*
Y157613D01*
X57166D01*
Y153414D01*
X63335D01*
Y157613D01*
X75276D01*
Y155516D01*
X77133D01*
G75*
G02*
X79941Y153414I617J-2102D01*
G01*
X114993D01*
X115346Y154026D01*
Y154664D01*
G75*
G02*
X115686Y155481I1154J0D01*
G01*
X118183Y157978D01*
G75*
G02*
X119000Y158317I817J-814D01*
G01*
X122272D01*
X122369Y158414D01*
X63071D01*
G75*
G02*
X57429I-2821J0D01*
G01*
X39543D01*
G37*
X117654Y154186D02*
G36*
X117654Y154186D02*
Y154026D01*
X118007Y153414D01*
X120740D01*
Y153807D01*
G75*
G02*
X121080Y154624I1154J0D01*
G01*
X122465Y156010D01*
X119478D01*
X117654Y154186D01*
G37*
X123131Y153414D02*
G36*
X123131Y153414D02*
X125781D01*
X126134Y154026D01*
Y155451D01*
G75*
G02*
X126473Y156268I1154J0D01*
G01*
X127465Y157260D01*
X126978D01*
X123131Y153414D01*
G37*
X128441Y154973D02*
G36*
X128441Y154973D02*
Y154026D01*
X128794Y153414D01*
X131530D01*
G75*
G02*
X131867Y154162I1152J-69D01*
G01*
X133715Y156010D01*
X129478D01*
X128441Y154973D01*
G37*
X135728Y154760D02*
G36*
X135728Y154760D02*
X134381Y153414D01*
X136568D01*
X137006Y154172D01*
G75*
G02*
X137261Y154556I1063J-430D01*
G01*
X137465Y154760D01*
X135728D01*
G37*
X139508Y153541D02*
G36*
X139508Y153541D02*
X139581Y153414D01*
X147356D01*
X147709Y154026D01*
Y154526D01*
G75*
G02*
X148048Y155343I1154J0D01*
G01*
X148715Y156010D01*
X148228D01*
X147317Y155100D01*
G75*
G02*
X146500Y154760I-817J814D01*
G01*
X140728D01*
X139508Y153541D01*
G37*
X150016Y154048D02*
G36*
X150016Y154048D02*
Y154026D01*
X150369Y153414D01*
X164096D01*
Y154668D01*
G75*
G02*
Y154676I979J4D01*
G01*
G75*
G02*
X164100Y154765I998J0D01*
G01*
G75*
G02*
X164000Y154760I-105J1269D01*
G01*
X150728D01*
X150016Y154048D01*
G37*
X166404Y154190D02*
G36*
X166404Y154190D02*
Y153414D01*
X230957D01*
Y158414D01*
X180560D01*
X178496Y156350D01*
G75*
G02*
X177679Y156010I-817J814D01*
G01*
X168224D01*
X166404Y154190D01*
G37*
X39543Y165914D02*
G36*
X39543Y165914D02*
Y158414D01*
X57429D01*
G75*
G02*
X63071I2821J0D01*
G01*
X122369D01*
X124096Y160142D01*
Y160932D01*
X122231Y164162D01*
G75*
G02*
X121883Y164994I3003J1745D01*
G01*
X121879Y165010D01*
X121637Y165914D01*
X118740D01*
G75*
G02*
X111760I-3490J0D01*
G01*
X75276D01*
Y165516D01*
X77133D01*
G75*
G02*
X79941Y163414I617J-2102D01*
G01*
G75*
G02*
X77133Y161311I-2191J0D01*
G01*
X75276D01*
Y159215D01*
X63335D01*
Y165914D01*
X57166D01*
Y159215D01*
X45225D01*
Y161311D01*
X43367D01*
G75*
G02*
X40559Y163414I-617J2102D01*
G01*
G75*
G02*
X43367Y165516I2191J0D01*
G01*
X45225D01*
Y165914D01*
X39543D01*
G37*
X180993Y158847D02*
G36*
X180993Y158847D02*
X180560Y158414D01*
X230957D01*
Y165914D01*
X198740D01*
G75*
G02*
X191760I-3490J0D01*
G01*
X189138D01*
G75*
G02*
X181362I-3888J0D01*
G01*
X181333D01*
Y159664D01*
G75*
G02*
X180993Y158847I-1154J0D01*
G01*
G37*
X39543Y173414D02*
G36*
X39543Y173414D02*
Y165914D01*
X45225D01*
Y167613D01*
X57166D01*
Y165914D01*
X63335D01*
Y167613D01*
X75276D01*
Y165914D01*
X111760D01*
G75*
G02*
X118740I3490J0D01*
G01*
X121637D01*
X120911Y168622D01*
X118460Y171073D01*
G75*
G02*
X118122Y171889I817J816D01*
G01*
Y173414D01*
X79941D01*
G75*
G02*
X77133Y171311I-2191J0D01*
G01*
X75276D01*
Y169215D01*
X63335D01*
Y173414D01*
X57166D01*
Y169215D01*
X45225D01*
Y171311D01*
X43367D01*
G75*
G02*
X40559Y173414I-617J2102D01*
G01*
X39543D01*
G37*
X177939D02*
G36*
X177939Y173414D02*
X180993Y170359D01*
G75*
G02*
X181333Y169542I-814J-817D01*
G01*
Y165914D01*
X181362D01*
G75*
G02*
X189138I3888J0D01*
G01*
X191760D01*
G75*
G02*
X198740I3490J0D01*
G01*
X230957D01*
Y173414D01*
X177939D01*
G37*
X39543Y183414D02*
G36*
X39543Y183414D02*
Y173414D01*
X40559D01*
G75*
G02*
X43367Y175516I2191J0D01*
G01*
X45225D01*
Y177613D01*
X57166D01*
Y173414D01*
X63335D01*
Y177613D01*
X75276D01*
Y175516D01*
X77133D01*
G75*
G02*
X79941Y173414I617J-2102D01*
G01*
X118122D01*
Y178878D01*
G75*
G02*
X111398Y181445I-2872J2568D01*
G01*
Y183414D01*
X79941D01*
G75*
G02*
X77133Y181311I-2191J0D01*
G01*
X75276D01*
Y179215D01*
X63335D01*
Y183414D01*
X57166D01*
Y179215D01*
X45225D01*
Y181311D01*
X43367D01*
G75*
G02*
X40559Y183414I-617J2102D01*
G01*
X39543D01*
G37*
X159103D02*
G36*
X159103Y183414D02*
Y181445D01*
Y181445D01*
G75*
G02*
X157204Y178125I-3852J0D01*
G01*
X163297D01*
G75*
G02*
X161398Y181445I1953J3320D01*
G01*
Y181445D01*
Y183414D01*
X159103D01*
G37*
X169103D02*
G36*
X169103Y183414D02*
Y181445D01*
Y181445D01*
G75*
G02*
X167204Y178125I-3852J0D01*
G01*
X172750D01*
G75*
G02*
X173567Y177785I0J-1154D01*
G01*
X177939Y173414D01*
X230957D01*
Y183414D01*
X229103D01*
Y181445D01*
G75*
G02*
X221398I-3852J0D01*
G01*
Y183414D01*
X219500D01*
Y181445D01*
G75*
G02*
X211000I-4250J0D01*
G01*
Y183414D01*
X209103D01*
Y181445D01*
G75*
G02*
X201398I-3852J0D01*
G01*
Y183414D01*
X199102D01*
Y181445D01*
G75*
G02*
X191398I-3852J0D01*
G01*
Y183414D01*
X189102D01*
Y181445D01*
G75*
G02*
X181398I-3852J0D01*
G01*
Y183414D01*
X179102D01*
Y181445D01*
G75*
G02*
X171398I-3852J0D01*
G01*
Y183414D01*
X169103D01*
G37*
X39543Y193414D02*
G36*
X39543Y193414D02*
Y183414D01*
X40559D01*
G75*
G02*
X43367Y185516I2191J0D01*
G01*
X45225D01*
Y187613D01*
X57166D01*
Y183414D01*
X63335D01*
Y187613D01*
X75276D01*
Y185516D01*
X77133D01*
G75*
G02*
X79941Y183414I617J-2102D01*
G01*
X111398D01*
Y185382D01*
G75*
G02*
X118122Y187950I3852J0D01*
G01*
Y193414D01*
X85631D01*
X84817Y192600D01*
G75*
G02*
X84000Y192260I-817J814D01*
G01*
X80006D01*
X75276Y189529D01*
Y189215D01*
X63335D01*
Y193414D01*
X57166D01*
Y189215D01*
X45225D01*
Y191311D01*
X43367D01*
G75*
G02*
X40559Y193414I-617J2102D01*
G01*
X39543D01*
G37*
X151404D02*
G36*
X151404Y193414D02*
Y185588D01*
G75*
G02*
X159103Y185382I3847J-206D01*
G01*
Y183414D01*
X161398D01*
Y185382D01*
G75*
G02*
X169103I3852J0D01*
G01*
Y183414D01*
X171398D01*
Y185382D01*
G75*
G02*
X171929Y187335I3856J-1D01*
G01*
X174095Y191086D01*
Y193414D01*
X151404D01*
G37*
X176402D02*
G36*
X176402Y193414D02*
Y191091D01*
X178571Y187335D01*
G75*
G02*
X179102Y185382I-3324J-1954D01*
G01*
Y183414D01*
X181398D01*
Y185382D01*
G75*
G02*
X181929Y187335I3856J-1D01*
G01*
X184096Y191089D01*
Y193414D01*
X176402D01*
G37*
X186404D02*
G36*
X186404Y193414D02*
Y191089D01*
X188571Y187335D01*
G75*
G02*
X189102Y185382I-3324J-1954D01*
G01*
Y183414D01*
X191398D01*
Y185383D01*
G75*
G02*
X191929Y187335I3850J1D01*
G01*
X193148Y189446D01*
Y193414D01*
X186404D01*
G37*
X197352D02*
G36*
X197352Y193414D02*
Y189446D01*
X198571Y187335D01*
G75*
G02*
X199102Y185383I-3319J-1951D01*
G01*
Y183414D01*
X201398D01*
Y185382D01*
G75*
G02*
X209103I3852J0D01*
G01*
Y183414D01*
X211000D01*
Y185382D01*
G75*
G02*
X219500I4250J0D01*
G01*
Y183414D01*
X221398D01*
Y185382D01*
G75*
G02*
X229103I3852J0D01*
G01*
Y183414D01*
X230957D01*
Y193414D01*
X197352D01*
G37*
X39543Y213414D02*
G36*
X39543Y213414D02*
Y193414D01*
X40559D01*
G75*
G02*
X43367Y195516I2191J0D01*
G01*
X45225D01*
Y197613D01*
X57166D01*
Y193414D01*
X63335D01*
Y197613D01*
X75276D01*
Y197299D01*
X80006Y194567D01*
X83522D01*
X98183Y209228D01*
G75*
G02*
X99000Y209567I817J-814D01*
G01*
X100366D01*
X101655Y210311D01*
G75*
G02*
X101674Y210322I177J-293D01*
G01*
G75*
G02*
X104941Y208414I1076J-1909D01*
G01*
G75*
G02*
X101674Y206506I-2191J0D01*
G01*
G75*
G02*
X101655Y206516I158J304D01*
G01*
X100366Y207260D01*
X99478D01*
X85631Y193414D01*
X118122D01*
Y213414D01*
X111549D01*
G75*
G02*
X111941Y212164I-1800J-1250D01*
G01*
G75*
G02*
X108674Y210256I-2191J0D01*
G01*
G75*
G02*
X108655Y210266I158J304D01*
G01*
X107366Y211010D01*
X94478D01*
X86067Y202600D01*
G75*
G02*
X85250Y202260I-817J814D01*
G01*
X80033D01*
G75*
G02*
X79722Y202026I-1105J1143D01*
G01*
X75276Y199459D01*
Y199215D01*
X74442D01*
X74405D01*
X63335D01*
Y203617D01*
X62623Y202905D01*
G75*
G02*
X62164Y202415I-1036J510D01*
G01*
X57165Y199529D01*
Y199215D01*
X45224D01*
Y207613D01*
X57165D01*
Y207299D01*
X61342Y204887D01*
X61596Y205142D01*
Y207164D01*
G75*
G02*
X61936Y207981I1154J0D01*
G01*
X63183Y209228D01*
G75*
G02*
X63335Y209356I837J-837D01*
G01*
Y213414D01*
X57166D01*
Y209215D01*
X45225D01*
Y211311D01*
X43367D01*
G75*
G02*
X40559Y213414I-617J2102D01*
G01*
X39543D01*
G37*
X75276Y211311D02*
G36*
X75276Y211311D02*
Y209567D01*
X81022D01*
X84869Y213414D01*
X79941D01*
G75*
G02*
X77133Y211311I-2191J0D01*
G01*
X75276D01*
G37*
X75463Y207260D02*
G36*
X75463Y207260D02*
X79722Y204802D01*
G75*
G02*
X80033Y204567I-794J-1377D01*
G01*
X84772D01*
X93183Y212978D01*
G75*
G02*
X94000Y213317I817J-814D01*
G01*
X107366D01*
X107533Y213414D01*
X88131D01*
X82317Y207600D01*
G75*
G02*
X81500Y207260I-817J814D01*
G01*
X75463D01*
G37*
X151404Y213414D02*
G36*
X151404Y213414D02*
Y193414D01*
X174095D01*
Y213414D01*
X151404D01*
G37*
X176402D02*
G36*
X176402Y213414D02*
Y193414D01*
X184096D01*
Y213414D01*
X176402D01*
G37*
X186404D02*
G36*
X186404Y213414D02*
Y193414D01*
X193148D01*
Y206293D01*
X188764Y210677D01*
G75*
G02*
X188148Y212164I1488J1488D01*
G01*
Y213414D01*
X186404D01*
G37*
X192352D02*
G36*
X192352Y213414D02*
Y213035D01*
X196736Y208651D01*
G75*
G02*
X197352Y207164I-1488J-1488D01*
G01*
Y193414D01*
X230957D01*
Y213414D01*
X192352D01*
G37*
X39543Y223414D02*
G36*
X39543Y223414D02*
Y213414D01*
X40559D01*
G75*
G02*
X43367Y215516I2191J0D01*
G01*
X45225D01*
Y217613D01*
X57166D01*
Y213414D01*
X63335D01*
Y217613D01*
X75276D01*
Y215516D01*
X77133D01*
G75*
G02*
X79941Y213414I617J-2102D01*
G01*
X84869D01*
X89433Y217978D01*
G75*
G02*
X90250Y218317I817J-814D01*
G01*
X104116D01*
X105405Y219061D01*
G75*
G02*
X105424Y219072I177J-293D01*
G01*
G75*
G02*
X108691Y217164I1076J-1909D01*
G01*
G75*
G02*
X105424Y215256I-2191J0D01*
G01*
G75*
G02*
X105405Y215266I158J304D01*
G01*
X104116Y216010D01*
X90728D01*
X88131Y213414D01*
X107533D01*
X108655Y214061D01*
G75*
G02*
X108674Y214072I177J-293D01*
G01*
G75*
G02*
X111549Y213414I1076J-1909D01*
G01*
X118122D01*
Y223414D01*
X79941D01*
G75*
G02*
X77133Y221311I-2191J0D01*
G01*
X75276D01*
Y219215D01*
X63335D01*
Y223414D01*
X57166D01*
Y219215D01*
X45225D01*
Y221311D01*
X43367D01*
G75*
G02*
X40559Y223414I-617J2102D01*
G01*
X39543D01*
G37*
X146404D02*
G36*
X146404Y223414D02*
Y218892D01*
X151064Y214231D01*
G75*
G02*
X151404Y213414I-814J-817D01*
G01*
X174095D01*
Y220436D01*
X171118Y223414D01*
X146404D01*
G37*
X176402Y220914D02*
G36*
X176402Y220914D02*
Y213414D01*
X184096D01*
Y213436D01*
X176376Y221156D01*
G75*
G02*
X176402Y220916I-1114J-240D01*
G01*
G75*
G02*
Y220914I-1137J-1D01*
G01*
G37*
X177381Y223414D02*
G36*
X177381Y223414D02*
X186064Y214731D01*
G75*
G02*
X186404Y213914I-814J-817D01*
G01*
Y213414D01*
X188148D01*
Y223414D01*
X177381D01*
G37*
X192352D02*
G36*
X192352Y223414D02*
Y213414D01*
X230957D01*
Y223414D01*
X192352D01*
G37*
X39543Y233414D02*
G36*
X39543Y233414D02*
Y223414D01*
X40559D01*
G75*
G02*
X43367Y225516I2191J0D01*
G01*
X45225D01*
Y227613D01*
X57166D01*
Y223414D01*
X63335D01*
Y227613D01*
X75276D01*
Y225516D01*
X77133D01*
G75*
G02*
X79941Y223414I617J-2102D01*
G01*
X118122D01*
Y233414D01*
X79941D01*
G75*
G02*
X77133Y231311I-2191J0D01*
G01*
X75276D01*
Y229215D01*
X63335D01*
Y233414D01*
X57166D01*
Y229215D01*
X45225D01*
Y233414D01*
X39543D01*
G37*
X146404D02*
G36*
X146404Y233414D02*
Y223414D01*
X171118D01*
X170272Y224260D01*
X156750D01*
G75*
G02*
X155933Y224600I0J1154D01*
G01*
X151120Y229413D01*
X149710Y229791D01*
G75*
G02*
X148059Y231914I540J2123D01*
G01*
G75*
G02*
X148653Y233414I2191J0D01*
G01*
X146404D01*
G37*
X151847D02*
G36*
X151847Y233414D02*
G75*
G02*
X152373Y232454I-1597J-1500D01*
G01*
X152751Y231044D01*
X157228Y226567D01*
X157522D01*
G75*
G02*
X157059Y227914I1728J1346D01*
G01*
G75*
G02*
X160326Y229822I2191J0D01*
G01*
G75*
G02*
X160345Y229811I-158J-304D01*
G01*
X161634Y229067D01*
X171250D01*
G75*
G02*
X172067Y228728I0J-1154D01*
G01*
X177381Y223414D01*
X188148D01*
Y233414D01*
X151847D01*
G37*
X192352D02*
G36*
X192352Y233414D02*
Y223414D01*
X230957D01*
Y233414D01*
X192352D01*
G37*
X39543Y243414D02*
G36*
X39543Y243414D02*
Y233414D01*
X45225D01*
Y237613D01*
X57166D01*
Y233414D01*
X63335D01*
Y237613D01*
X75276D01*
Y235516D01*
X77133D01*
G75*
G02*
X79941Y233414I617J-2102D01*
G01*
X118122D01*
Y238878D01*
G75*
G02*
X111398Y241445I-2872J2568D01*
G01*
Y243414D01*
X79941D01*
G75*
G02*
X77133Y241311I-2191J0D01*
G01*
X75276D01*
Y239215D01*
X63335D01*
Y243414D01*
X57166D01*
Y239215D01*
X45225D01*
Y243414D01*
X39543D01*
G37*
X146404Y235739D02*
G36*
X146404Y235739D02*
Y233414D01*
X148653D01*
G75*
G02*
X151847I1597J-1500D01*
G01*
X188148D01*
Y238906D01*
G75*
G02*
X181398Y241445I-2897J2539D01*
G01*
Y243414D01*
X179103D01*
Y241445D01*
G75*
G02*
X171398I-3852J0D01*
G01*
Y243414D01*
X169103D01*
Y241445D01*
G75*
G02*
X161398I-3852J0D01*
G01*
Y243414D01*
X159103D01*
Y241445D01*
G75*
G02*
X151398I-3852J0D01*
G01*
Y243414D01*
X149102D01*
Y241445D01*
Y241445D01*
G75*
G02*
X148594Y239533I-3851J0D01*
G01*
G75*
G02*
X148586Y239519I-284J153D01*
G01*
X146404Y235739D01*
G37*
X192352Y238337D02*
G36*
X192352Y238337D02*
Y233414D01*
X230957D01*
Y243414D01*
X229103D01*
Y241445D01*
G75*
G02*
X221398I-3852J0D01*
G01*
Y243414D01*
X219103D01*
Y241445D01*
G75*
G02*
X211398I-3852J0D01*
G01*
Y243414D01*
X209500D01*
Y241445D01*
G75*
G02*
X201000I-4250J0D01*
G01*
Y243414D01*
X199500D01*
Y241445D01*
G75*
G02*
X192352Y238337I-4250J0D01*
G01*
G37*
X39543Y253414D02*
G36*
X39543Y253414D02*
Y243414D01*
X45225D01*
Y247613D01*
X57166D01*
Y243414D01*
X63335D01*
Y247613D01*
X75276D01*
Y245516D01*
X77133D01*
G75*
G02*
X79941Y243414I617J-2102D01*
G01*
X111398D01*
Y245382D01*
G75*
G02*
X118122Y247950I3852J0D01*
G01*
Y252437D01*
Y252439D01*
Y252439D01*
G75*
G02*
X118459Y253254I1156J-2D01*
G01*
X118619Y253414D01*
X79941D01*
G75*
G02*
X77133Y251311I-2191J0D01*
G01*
X75276D01*
Y249215D01*
X63335D01*
Y253414D01*
X57166D01*
Y249215D01*
X45225D01*
Y253414D01*
X39543D01*
G37*
X121402Y253413D02*
G36*
X121402Y253413D02*
G75*
G02*
X121154Y252699I-1152J0D01*
G01*
X121869Y253414D01*
X121402D01*
Y253413D01*
G37*
X121904Y250186D02*
G36*
X121904Y250186D02*
Y247290D01*
G75*
G02*
X128096Y247979I3347J-1908D01*
G01*
Y251164D01*
G75*
G02*
X128436Y251981I1154J0D01*
G01*
X129869Y253414D01*
X125131D01*
X121904Y250186D01*
G37*
X131904Y249686D02*
G36*
X131904Y249686D02*
Y247290D01*
G75*
G02*
X138096Y247979I3347J-1908D01*
G01*
Y250664D01*
G75*
G02*
X138436Y251481I1154J0D01*
G01*
X140369Y253414D01*
X135631D01*
X131904Y249686D01*
G37*
X141904Y249936D02*
G36*
X141904Y249936D02*
Y247291D01*
G75*
G02*
X149102Y245382I3346J-1908D01*
G01*
Y243414D01*
X151398D01*
Y245382D01*
G75*
G02*
X159103I3852J0D01*
G01*
Y243414D01*
X161398D01*
Y245382D01*
G75*
G02*
X169103I3852J0D01*
G01*
Y243414D01*
X171398D01*
Y245382D01*
G75*
G02*
X179103I3852J0D01*
G01*
Y243414D01*
X181398D01*
Y245382D01*
G75*
G02*
X188148Y247921I3852J0D01*
G01*
Y253414D01*
X169381D01*
X168567Y252600D01*
G75*
G02*
X167750Y252260I-817J814D01*
G01*
X144228D01*
X141904Y249936D01*
G37*
X192352Y253414D02*
G36*
X192352Y253414D02*
Y248491D01*
G75*
G02*
X199500Y245382I2898J-3109D01*
G01*
Y243414D01*
X201000D01*
Y245382D01*
G75*
G02*
X209500I4250J0D01*
G01*
Y243414D01*
X211398D01*
Y245382D01*
G75*
G02*
X219103I3852J0D01*
G01*
Y243414D01*
X221398D01*
Y245382D01*
G75*
G02*
X229103I3852J0D01*
G01*
Y243414D01*
X230957D01*
Y253414D01*
X192352D01*
G37*
X39543Y263414D02*
G36*
X39543Y263414D02*
Y253414D01*
X45225D01*
Y257613D01*
X57166D01*
Y253414D01*
X63335D01*
Y257613D01*
X75276D01*
Y255516D01*
X77133D01*
G75*
G02*
X79941Y253414I617J-2102D01*
G01*
X118619D01*
X119095Y253891D01*
Y263414D01*
X75276D01*
Y259215D01*
X63335D01*
Y263414D01*
X57563D01*
Y258817D01*
X44827D01*
Y261869D01*
G75*
G02*
X40161Y263414I-2077J1545D01*
G01*
X39543D01*
G37*
X121402Y253414D02*
G36*
X121402Y253414D02*
Y253414D01*
X121869D01*
X125346Y256892D01*
Y263414D01*
X121402D01*
Y253416D01*
Y253414D01*
G37*
X127314Y255597D02*
G36*
X127314Y255597D02*
X125131Y253414D01*
X129869D01*
X139096Y262642D01*
Y263414D01*
X127654D01*
Y256414D01*
G75*
G02*
X127314Y255597I-1154J0D01*
G01*
G37*
X135631Y253414D02*
G36*
X135631Y253414D02*
X140369D01*
X142433Y255478D01*
G75*
G02*
X143250Y255817I817J-814D01*
G01*
X165022D01*
X169096Y259892D01*
Y263414D01*
X145631D01*
X135631Y253414D01*
G37*
X141404Y263414D02*
G36*
X141404Y263414D02*
Y262449D01*
X142369Y263414D01*
X141404D01*
G37*
X174814Y258847D02*
G36*
X174814Y258847D02*
X169381Y253414D01*
X188148D01*
Y258793D01*
X183764Y263177D01*
G75*
G02*
X183560Y263414I1488J1487D01*
G01*
X177654D01*
Y260142D01*
X179478Y258317D01*
X181616D01*
X182905Y259061D01*
G75*
G02*
X182924Y259072I177J-293D01*
G01*
G75*
G02*
X186191Y257164I1076J-1909D01*
G01*
G75*
G02*
X182924Y255256I-2191J0D01*
G01*
G75*
G02*
X182905Y255266I158J304D01*
G01*
X181616Y256010D01*
X179000D01*
G75*
G02*
X178183Y256350I0J1154D01*
G01*
X175686Y258847D01*
G75*
G02*
X175346Y259664I814J817D01*
G01*
Y263414D01*
X175154D01*
Y259664D01*
G75*
G02*
X174814Y258847I-1154J0D01*
G01*
G37*
X189473Y263414D02*
G36*
X189473Y263414D02*
X191736Y261151D01*
G75*
G02*
X192352Y259664I-1488J-1488D01*
G01*
Y253414D01*
X230957D01*
Y263414D01*
X189473D01*
G37*
X39543Y267784D02*
G36*
X39543Y267784D02*
Y263414D01*
X40161D01*
G75*
G02*
X44827Y264959I2589J0D01*
G01*
Y267784D01*
X39543D01*
G37*
X57563Y267554D02*
G36*
X57563Y267554D02*
Y263414D01*
X63335D01*
Y267613D01*
X75276D01*
Y263414D01*
X119095D01*
Y263631D01*
X117598Y266224D01*
G75*
G02*
X117173Y267783I2648J1558D01*
G01*
G75*
G02*
Y267784I2942J1D01*
G01*
X63000D01*
G75*
G02*
X57563Y267554I-2750J630D01*
G01*
G37*
X121402Y263626D02*
G36*
X121402Y263626D02*
Y263414D01*
X125346D01*
Y267784D01*
X123327D01*
Y267783D01*
G75*
G02*
X122902Y266224I-3076J0D01*
G01*
X121402Y263626D01*
G37*
X127654Y266133D02*
G36*
X127654Y266133D02*
Y263414D01*
X139096D01*
Y263629D01*
X137598Y266224D01*
G75*
G02*
X137173Y267783I2648J1558D01*
G01*
G75*
G02*
Y267784I2942J1D01*
G01*
X133327D01*
G75*
G02*
X127654Y266133I-3077J0D01*
G01*
G37*
X141404Y263629D02*
G36*
X141404Y263629D02*
Y263414D01*
X142369D01*
X144096Y265142D01*
Y267784D01*
X143327D01*
Y267783D01*
G75*
G02*
X142902Y266224I-3076J0D01*
G01*
X141404Y263629D01*
G37*
X146064Y263847D02*
G36*
X146064Y263847D02*
X145631Y263414D01*
X169096D01*
Y263629D01*
X167598Y266224D01*
G75*
G02*
X167173Y267784I2652J1559D01*
G01*
X163327D01*
G75*
G02*
X157173I-3077J0D01*
G01*
X153327D01*
G75*
G02*
X147173I-3077J0D01*
G01*
X146404D01*
Y264664D01*
G75*
G02*
X146064Y263847I-1154J0D01*
G01*
G37*
X175154Y267784D02*
G36*
X175154Y267784D02*
Y263414D01*
X175346D01*
Y267784D01*
X175154D01*
G37*
X177654Y266133D02*
G36*
X177654Y266133D02*
Y263414D01*
X183560D01*
G75*
G02*
X183148Y264664I1692J1251D01*
G01*
Y266749D01*
G75*
G02*
X177654Y266133I-2898J1035D01*
G01*
G37*
X187352Y266749D02*
G36*
X187352Y266749D02*
Y265535D01*
X189473Y263414D01*
X230957D01*
Y267784D01*
X193327D01*
Y267783D01*
G75*
G02*
X187352Y266749I-3077J0D01*
G01*
G37*
X39543Y273414D02*
G36*
X39543Y273414D02*
Y267784D01*
X44827D01*
Y268010D01*
X57458D01*
G75*
G02*
X57429Y268414I2852J409D01*
G01*
G75*
G02*
X57458Y268817I2881J-5D01*
G01*
X44827D01*
Y271869D01*
G75*
G02*
X40161Y273414I-2077J1545D01*
G01*
X39543D01*
G37*
X57563D02*
G36*
X57563Y273414D02*
Y269274D01*
G75*
G02*
X63071Y268414I2687J-860D01*
G01*
G75*
G02*
X63000Y267784I-2821J0D01*
G01*
X117173D01*
G75*
G02*
X123327I3077J0D01*
G01*
X125346D01*
Y273414D01*
X79941D01*
G75*
G02*
X75887Y272260I-2191J0D01*
G01*
X75276D01*
Y269215D01*
X63335D01*
Y273414D01*
X57563D01*
G37*
X127654D02*
G36*
X127654Y273414D02*
Y269435D01*
G75*
G02*
X133327Y267784I2596J-1651D01*
G01*
X137173D01*
G75*
G02*
X143327I3077J0D01*
G01*
X144096D01*
Y273414D01*
X127654D01*
G37*
X146404D02*
G36*
X146404Y273414D02*
Y267784D01*
X147173D01*
G75*
G02*
X153327I3077J0D01*
G01*
X157173D01*
G75*
G02*
X163327I3077J0D01*
G01*
X167173D01*
G75*
G02*
X172846Y269435I3077J0D01*
G01*
Y273414D01*
X146404D01*
G37*
X175154D02*
G36*
X175154Y273414D02*
Y267784D01*
X175346D01*
Y273414D01*
X175154D01*
G37*
X177654D02*
G36*
X177654Y273414D02*
Y269435D01*
G75*
G02*
X183148Y268819I2596J-1650D01*
G01*
Y270914D01*
G75*
G02*
X183764Y272401I2104J-1D01*
G01*
X184777Y273414D01*
X177654D01*
G37*
X187352Y270043D02*
G36*
X187352Y270043D02*
Y268819D01*
G75*
G02*
X193327Y267784I2898J-1034D01*
G01*
Y267784D01*
X230957D01*
Y273414D01*
X190723D01*
X187352Y270043D01*
G37*
X39543Y283414D02*
G36*
X39543Y283414D02*
Y273414D01*
X40161D01*
G75*
G02*
X44827Y274959I2589J0D01*
G01*
Y278010D01*
X57259D01*
G75*
G02*
X57232Y278414I2984J404D01*
G01*
G75*
G02*
X57259Y278817I3011J0D01*
G01*
X44827D01*
Y281869D01*
G75*
G02*
X40161Y283414I-2077J1545D01*
G01*
X39543D01*
G37*
X57563Y277039D02*
G36*
X57563Y277039D02*
Y273414D01*
X63335D01*
Y277613D01*
X75276D01*
Y274567D01*
X75887D01*
G75*
G02*
X79941Y273414I1863J-1154D01*
G01*
X125346D01*
Y277164D01*
G75*
G02*
X125686Y277981I1154J0D01*
G01*
X129096Y281392D01*
Y283414D01*
X75276D01*
Y279215D01*
X63335D01*
Y283414D01*
X57563D01*
Y279788D01*
G75*
G02*
X63268Y278414I2687J-1374D01*
G01*
G75*
G02*
X57563Y277039I-3018J0D01*
G01*
G37*
X127654Y276686D02*
G36*
X127654Y276686D02*
Y273414D01*
X144096D01*
Y277164D01*
G75*
G02*
X144436Y277981I1154J0D01*
G01*
X149096Y282642D01*
Y283414D01*
X131404D01*
Y280914D01*
G75*
G02*
X131064Y280097I-1154J0D01*
G01*
X127654Y276686D01*
G37*
X146404D02*
G36*
X146404Y276686D02*
Y273414D01*
X172846D01*
Y276686D01*
X169436Y280097D01*
G75*
G02*
X169096Y280914I814J817D01*
G01*
Y283414D01*
X151404D01*
Y282164D01*
G75*
G02*
X151064Y281347I-1154J0D01*
G01*
X146404Y276686D01*
G37*
X171404Y283414D02*
G36*
X171404Y283414D02*
Y281392D01*
X174814Y277981D01*
G75*
G02*
X175154Y277164I-814J-817D01*
G01*
Y273414D01*
X175346D01*
Y277164D01*
G75*
G02*
X175686Y277981I1154J0D01*
G01*
X179096Y281392D01*
Y283414D01*
X171404D01*
G37*
X177654Y276686D02*
G36*
X177654Y276686D02*
Y273414D01*
X184777D01*
X188148Y276785D01*
Y283414D01*
X181404D01*
Y280914D01*
G75*
G02*
X181064Y280097I-1154J0D01*
G01*
X177654Y276686D01*
G37*
X191736Y274427D02*
G36*
X191736Y274427D02*
X190723Y273414D01*
X230957D01*
Y283414D01*
X192352D01*
Y275914D01*
G75*
G02*
X191736Y274427I-2104J1D01*
G01*
G37*
X39543Y300027D02*
G36*
X39543Y300027D02*
Y283414D01*
X40161D01*
G75*
G02*
X44827Y284959I2589J0D01*
G01*
Y288010D01*
X57563D01*
Y283414D01*
X63335D01*
Y287613D01*
X75276D01*
Y283414D01*
X129096D01*
Y294889D01*
X127598Y297484D01*
G75*
G02*
X127173Y299043I2648J1558D01*
G01*
G75*
G02*
Y299044I2942J1D01*
G01*
G75*
G02*
X127335Y300027I3077J0D01*
G01*
X123582D01*
G75*
G02*
X123724Y299044I-3333J-983D01*
G01*
G75*
G02*
X116776I-3474J0D01*
G01*
G75*
G02*
X116918Y300027I3475J0D01*
G01*
X71867D01*
G75*
G02*
X56882I-7493J0D01*
G01*
X56130D01*
G75*
G02*
X41145I-7493J2D01*
G01*
X39543D01*
G37*
X131404Y294889D02*
G36*
X131404Y294889D02*
Y283414D01*
X149096D01*
Y294889D01*
X147598Y297484D01*
G75*
G02*
X147173Y299043I2648J1558D01*
G01*
G75*
G02*
Y299044I2942J1D01*
G01*
G75*
G02*
X147335Y300027I3077J0D01*
G01*
X143165D01*
G75*
G02*
X143327Y299044I-2915J-983D01*
G01*
G75*
G02*
X137173I-3077J0D01*
G01*
G75*
G02*
X137335Y300027I3077J0D01*
G01*
X133165D01*
G75*
G02*
X133327Y299044I-2915J-983D01*
G01*
Y299043D01*
G75*
G02*
X132902Y297484I-3076J0D01*
G01*
X131404Y294889D01*
G37*
X151404D02*
G36*
X151404Y294889D02*
Y283414D01*
X169096D01*
Y294889D01*
X167598Y297484D01*
G75*
G02*
X167173Y299043I2648J1558D01*
G01*
G75*
G02*
Y299044I2942J1D01*
G01*
G75*
G02*
X167335Y300027I3077J0D01*
G01*
X163165D01*
G75*
G02*
X163327Y299044I-2915J-983D01*
G01*
G75*
G02*
X157173I-3077J0D01*
G01*
G75*
G02*
X157335Y300027I3077J0D01*
G01*
X153165D01*
G75*
G02*
X153327Y299044I-2915J-983D01*
G01*
Y299043D01*
G75*
G02*
X152902Y297484I-3076J0D01*
G01*
X151404Y294889D01*
G37*
X171404D02*
G36*
X171404Y294889D02*
Y283414D01*
X179096D01*
Y294889D01*
X177598Y297484D01*
G75*
G02*
X177173Y299043I2648J1558D01*
G01*
G75*
G02*
Y299044I2942J1D01*
G01*
G75*
G02*
X177335Y300027I3077J0D01*
G01*
X173165D01*
G75*
G02*
X173327Y299044I-2915J-983D01*
G01*
Y299043D01*
G75*
G02*
X172902Y297484I-3076J0D01*
G01*
X171404Y294889D01*
G37*
X181404D02*
G36*
X181404Y294889D02*
Y283414D01*
X188148D01*
Y294568D01*
X187455Y295768D01*
G75*
G02*
X187354Y295967I1856J1070D01*
G01*
X187173D01*
Y296793D01*
Y296806D01*
Y296819D01*
Y296833D01*
Y296846D01*
Y300027D01*
X183165D01*
G75*
G02*
X183327Y299044I-2915J-983D01*
G01*
Y299043D01*
G75*
G02*
X182902Y297484I-3076J0D01*
G01*
X181404Y294889D01*
G37*
X192352Y294568D02*
G36*
X192352Y294568D02*
Y283414D01*
X230957D01*
Y300027D01*
X229352D01*
G75*
G02*
X214375I-7488J250D01*
G01*
X213609D01*
G75*
G02*
X198624I-7493J0D01*
G01*
X193327D01*
Y296846D01*
Y296833D01*
Y296819D01*
Y296806D01*
Y296793D01*
Y295967D01*
X193146D01*
G75*
G02*
X193045Y295768I-1957J871D01*
G01*
X192352Y294568D01*
G37*
X39543Y303193D02*
G36*
X39543Y303193D02*
Y300027D01*
X41145D01*
G75*
G02*
Y300029I7519J1D01*
G01*
G75*
G02*
X56130I7493J0D01*
G01*
G75*
G02*
Y300027I-7519J-1D01*
G01*
X56882D01*
G75*
G02*
X71867I7493J0D01*
G01*
X116918D01*
G75*
G02*
X123582I3332J-983D01*
G01*
X127335D01*
G75*
G02*
X133165I2915J-983D01*
G01*
X137335D01*
G75*
G02*
X143165I2915J-983D01*
G01*
X147335D01*
G75*
G02*
X153165I2915J-983D01*
G01*
X157335D01*
G75*
G02*
X163165I2915J-983D01*
G01*
X167335D01*
G75*
G02*
X173165I2915J-983D01*
G01*
X177335D01*
G75*
G02*
X183165I2915J-983D01*
G01*
X187173D01*
Y302120D01*
X193327D01*
Y300027D01*
X198624D01*
G75*
G02*
X213609I7493J0D01*
G01*
X214375D01*
G75*
G02*
X214371Y300277I7489J255D01*
G01*
G75*
G02*
X229356I7493J0D01*
G01*
G75*
G02*
X229352Y300027I-7493J5D01*
G01*
X230957D01*
Y303193D01*
X225029Y309120D01*
X45471D01*
X39543Y303193D01*
G37*
X121904Y179537D02*
Y173392D01*
X123228Y172067D01*
X130250D01*
G75*
G02*
X131067Y171728I0J-1154D01*
G01*
X132543Y170252D01*
X136154Y169285D01*
G75*
G02*
X136170Y169280I-305J-1099D01*
G01*
G75*
G02*
X138740Y165914I-920J-3367D01*
G01*
G75*
G02*
X138254Y164136I-3496J1D01*
G01*
X136404Y160932D01*
Y160914D01*
G75*
G02*
X136064Y160097I-1154J0D01*
G01*
X134285Y158317D01*
X136022D01*
X136933Y159228D01*
G75*
G02*
X137750Y159567I817J-814D01*
G01*
X142272D01*
X143928Y161223D01*
X142250Y164130D01*
G75*
G02*
X141901Y164931I3000J1783D01*
G01*
X140806Y168477D01*
X138831Y170451D01*
X134809D01*
G75*
G02*
X133992Y170791I0J1154D01*
G01*
X128436Y176347D01*
G75*
G02*
X128096Y177164I814J817D01*
G01*
Y178849D01*
G75*
G02*
X121904Y179537I-2846J2596D01*
G01*
G36*
X121904Y179537D02*
Y173392D01*
X123228Y172067D01*
X130250D01*
G75*
G02*
X131067Y171728I0J-1154D01*
G01*
X132543Y170252D01*
X136154Y169285D01*
G75*
G02*
X136170Y169280I-305J-1099D01*
G01*
G75*
G02*
X138740Y165914I-920J-3367D01*
G01*
G75*
G02*
X138254Y164136I-3496J1D01*
G01*
X136404Y160932D01*
Y160914D01*
G75*
G02*
X136064Y160097I-1154J0D01*
G01*
X134285Y158317D01*
X136022D01*
X136933Y159228D01*
G75*
G02*
X137750Y159567I817J-814D01*
G01*
X142272D01*
X143928Y161223D01*
X142250Y164130D01*
G75*
G02*
X141901Y164931I3000J1783D01*
G01*
X140806Y168477D01*
X138831Y170451D01*
X134809D01*
G75*
G02*
X133992Y170791I0J1154D01*
G01*
X128436Y176347D01*
G75*
G02*
X128096Y177164I814J817D01*
G01*
Y178849D01*
G75*
G02*
X121904Y179537I-2846J2596D01*
G01*
G37*
Y239537D02*
Y187290D01*
G75*
G02*
X128096Y187979I3347J-1908D01*
G01*
Y238849D01*
G75*
G02*
X121904Y239537I-2846J2596D01*
G01*
G36*
X121904Y239537D02*
Y187290D01*
G75*
G02*
X128096Y187979I3347J-1908D01*
G01*
Y238849D01*
G75*
G02*
X121904Y239537I-2846J2596D01*
G01*
G37*
X129772Y169760D02*
X124380D01*
X126154Y169285D01*
X126170Y169280D01*
G75*
G02*
X128254Y164136I-920J-3367D01*
G01*
X126404Y160932D01*
Y159664D01*
G75*
G02*
X126399Y159563I-1153J-1D01*
G01*
G75*
G02*
X126500Y159567I100J-1148D01*
G01*
X132272D01*
X133928Y161223D01*
X132246Y164136D01*
G75*
G02*
X131870Y165044I3000J1777D01*
G01*
X130911Y168621D01*
X129772Y169760D01*
G36*
X129772Y169760D02*
X124380D01*
X126154Y169285D01*
X126170Y169280D01*
G75*
G02*
X128254Y164136I-920J-3367D01*
G01*
X126404Y160932D01*
Y159664D01*
G75*
G02*
X126399Y159563I-1153J-1D01*
G01*
G75*
G02*
X126500Y159567I100J-1148D01*
G01*
X132272D01*
X133928Y161223D01*
X132246Y164136D01*
G75*
G02*
X131870Y165044I3000J1777D01*
G01*
X130911Y168621D01*
X129772Y169760D01*
G37*
X131904Y239537D02*
Y187290D01*
G75*
G02*
X138096Y187979I3347J-1908D01*
G01*
Y238849D01*
G75*
G02*
X131904Y239537I-2846J2596D01*
G01*
G36*
X131904Y239537D02*
Y187290D01*
G75*
G02*
X138096Y187979I3347J-1908D01*
G01*
Y238849D01*
G75*
G02*
X131904Y239537I-2846J2596D01*
G01*
G37*
X141904Y239537D02*
Y187290D01*
G75*
G02*
X149096Y185602I3347J-1908D01*
G01*
Y212936D01*
X144436Y217597D01*
G75*
G02*
X144096Y218414I814J817D01*
G01*
Y235739D01*
X141914Y239519D01*
G75*
G02*
X141906Y239533I1053J611D01*
G01*
G75*
G02*
X141904Y239537I3544J1936D01*
G01*
G36*
X141904Y239537D02*
Y187290D01*
G75*
G02*
X149096Y185602I3347J-1908D01*
G01*
Y212936D01*
X144436Y217597D01*
G75*
G02*
X144096Y218414I814J817D01*
G01*
Y235739D01*
X141914Y239519D01*
G75*
G02*
X141906Y239533I1053J611D01*
G01*
G75*
G02*
X141904Y239537I3544J1936D01*
G01*
G37*
X147459Y172074D02*
X140472D01*
X142404Y170142D01*
X145996Y169323D01*
G75*
G02*
X148254Y164136I-746J-3409D01*
G01*
X146404Y160932D01*
Y160914D01*
G75*
G02*
X146064Y160097I-1154J0D01*
G01*
X144285Y158317D01*
X144772D01*
X145683Y159228D01*
G75*
G02*
X146500Y159567I817J-814D01*
G01*
X152272D01*
X153928Y161223D01*
X152231Y164162D01*
G75*
G02*
X151883Y164994I3019J1752D01*
G01*
X151879Y165010D01*
X150911Y168621D01*
X147459Y172074D01*
G36*
X147459Y172074D02*
X140472D01*
X142404Y170142D01*
X145996Y169323D01*
G75*
G02*
X148254Y164136I-746J-3409D01*
G01*
X146404Y160932D01*
Y160914D01*
G75*
G02*
X146064Y160097I-1154J0D01*
G01*
X144285Y158317D01*
X144772D01*
X145683Y159228D01*
G75*
G02*
X146500Y159567I817J-814D01*
G01*
X152272D01*
X153928Y161223D01*
X152231Y164162D01*
G75*
G02*
X151883Y164994I3019J1752D01*
G01*
X151879Y165010D01*
X150911Y168621D01*
X147459Y172074D01*
G37*
X156211Y173322D02*
X149474D01*
X152543Y170252D01*
X156154Y169285D01*
X156170Y169280D01*
G75*
G02*
X158254Y164136I-920J-3367D01*
G01*
X156404Y160932D01*
Y160914D01*
G75*
G02*
X156064Y160097I-1154J0D01*
G01*
X154285Y158317D01*
X162272D01*
X164096Y160142D01*
Y160932D01*
X162231Y164162D01*
G75*
G02*
X161883Y164994I3019J1752D01*
G01*
X161879Y165010D01*
X160911Y168621D01*
X156211Y173322D01*
G36*
X156211Y173322D02*
X149474D01*
X152543Y170252D01*
X156154Y169285D01*
X156170Y169280D01*
G75*
G02*
X158254Y164136I-920J-3367D01*
G01*
X156404Y160932D01*
Y160914D01*
G75*
G02*
X156064Y160097I-1154J0D01*
G01*
X154285Y158317D01*
X162272D01*
X164096Y160142D01*
Y160932D01*
X162231Y164162D01*
G75*
G02*
X161883Y164994I3019J1752D01*
G01*
X161879Y165010D01*
X160911Y168621D01*
X156211Y173322D01*
G37*
X164963Y174570D02*
X158226D01*
X162543Y170252D01*
X166154Y169285D01*
X166170Y169280D01*
G75*
G02*
X168254Y164136I-920J-3367D01*
G01*
X166404Y160932D01*
Y159664D01*
G75*
G02*
X166399Y159563I-1153J-1D01*
G01*
G75*
G02*
X166500Y159567I100J-1148D01*
G01*
X172272D01*
X173928Y161223D01*
X172231Y164162D01*
G75*
G02*
X171883Y164994I3019J1752D01*
G01*
X171879Y165010D01*
X170911Y168621D01*
X164963Y174570D01*
G36*
X164963Y174570D02*
X158226D01*
X162543Y170252D01*
X166154Y169285D01*
X166170Y169280D01*
G75*
G02*
X168254Y164136I-920J-3367D01*
G01*
X166404Y160932D01*
Y159664D01*
G75*
G02*
X166399Y159563I-1153J-1D01*
G01*
G75*
G02*
X166500Y159567I100J-1148D01*
G01*
X172272D01*
X173928Y161223D01*
X172231Y164162D01*
G75*
G02*
X171883Y164994I3019J1752D01*
G01*
X171879Y165010D01*
X170911Y168621D01*
X164963Y174570D01*
G37*
X172272Y175818D02*
X166978D01*
X172543Y170252D01*
X176154Y169285D01*
X176170Y169280D01*
G75*
G02*
X178254Y164136I-920J-3367D01*
G01*
X176404Y160932D01*
Y160914D01*
G75*
G02*
X176064Y160097I-1154J0D01*
G01*
X174285Y158317D01*
X177201D01*
X179026Y160142D01*
Y169064D01*
X172272Y175818D01*
G36*
X172272Y175818D02*
X166978D01*
X172543Y170252D01*
X176154Y169285D01*
X176170Y169280D01*
G75*
G02*
X178254Y164136I-920J-3367D01*
G01*
X176404Y160932D01*
Y160914D01*
G75*
G02*
X176064Y160097I-1154J0D01*
G01*
X174285Y158317D01*
X177201D01*
X179026Y160142D01*
Y169064D01*
X172272Y175818D01*
G37*
X225801Y311839D02*
X233675Y303965D01*
Y122863D01*
X225801Y114989D01*
X44699D01*
X36825Y122863D01*
Y303965D01*
X44699Y311839D01*
X225801D01*
D02*
D22*
X51195Y203414D02*
X61500D01*
X62750Y204664D01*
Y207164D01*
X64000Y208414D01*
X81500D01*
X90250Y217164D01*
X106500D01*
X61587Y203414D02*
X56313Y206459D01*
Y200369D01*
X61587Y203414D01*
G36*
X61587Y203414D02*
X56313Y206459D01*
Y200369D01*
X61587Y203414D01*
G37*
X69305Y193414D02*
X84000D01*
X99000Y208414D01*
X102750D01*
X69305Y273414D02*
X77750D01*
X79698Y193414D02*
X74423Y196459D01*
Y190369D01*
X79698Y193414D01*
G36*
X79698Y193414D02*
X74423Y196459D01*
Y190369D01*
X79698Y193414D01*
G37*
X100675Y208414D02*
X102231Y209312D01*
G75*
G03*
Y207515I519J-898D01*
G01*
X100675Y208414D01*
G36*
X100675Y208414D02*
X102231Y209312D01*
G75*
G03*
Y207515I519J-898D01*
G01*
X100675Y208414D01*
G37*
X104425Y217164D02*
X105981Y218062D01*
G75*
G03*
Y216265I519J-898D01*
G01*
X104425Y217164D01*
G36*
X104425Y217164D02*
X105981Y218062D01*
G75*
G03*
Y216265I519J-898D01*
G01*
X104425Y217164D01*
G37*
X107675Y212164D02*
X109231Y213062D01*
G75*
G03*
Y211265I519J-898D01*
G01*
X107675Y212164D01*
G36*
X107675Y212164D02*
X109231Y213062D01*
G75*
G03*
Y211265I519J-898D01*
G01*
X107675Y212164D01*
G37*
X109750D02*
X94000D01*
X85250Y203414D01*
X69305D01*
X116500Y148414D02*
Y154664D01*
X119000Y157164D01*
X122750D01*
X125250Y159664D01*
Y165914D01*
X116500Y153717D02*
X118796Y149739D01*
G75*
G03*
X114204I-2296J-1326D01*
G01*
X116500Y153717D01*
G36*
X116500Y153717D02*
X118796Y149739D01*
G75*
G03*
X114204I-2296J-1326D01*
G01*
X116500Y153717D01*
G37*
X120250Y263937D02*
X118584Y266822D01*
G75*
G03*
X121916I1666J962D01*
G01*
X120250Y263937D01*
G36*
X120250Y263937D02*
X118584Y266822D01*
G75*
G03*
X121916I1666J962D01*
G01*
X120250Y263937D01*
G37*
X121894Y137233D02*
Y153807D01*
X126500Y158414D01*
X132750D01*
X135250Y160914D01*
Y165914D01*
X121894Y142536D02*
X124190Y138558D01*
G75*
G03*
X119597I-2296J-1326D01*
G01*
X121894Y142536D01*
G36*
X121894Y142536D02*
X124190Y138558D01*
G75*
G03*
X119597I-2296J-1326D01*
G01*
X121894Y142536D01*
G37*
X121946Y169218D02*
X125855Y168171D01*
G75*
G03*
X122993Y165309I-605J-2257D01*
G01*
X121946Y169218D01*
G36*
X121946Y169218D02*
X125855Y168171D01*
G75*
G03*
X122993Y165309I-605J-2257D01*
G01*
X121946Y169218D01*
G37*
X125250Y161241D02*
X123226Y164746D01*
G75*
G03*
X127274I2024J1169D01*
G01*
X125250Y161241D01*
G36*
X125250Y161241D02*
X123226Y164746D01*
G75*
G03*
X127274I2024J1169D01*
G01*
X125250Y161241D01*
G37*
Y165914D02*
X119275Y171889D01*
Y252439D01*
X120250Y253414D01*
Y267784D01*
X127287Y148414D02*
Y155451D01*
X129000Y157164D01*
X136500D01*
X137750Y158414D01*
X142750D01*
X145250Y160914D01*
Y165914D01*
X127287Y153717D02*
X129584Y149739D01*
G75*
G03*
X124991I-2296J-1326D01*
G01*
X127287Y153717D01*
G36*
X127287Y153717D02*
X129584Y149739D01*
G75*
G03*
X124991I-2296J-1326D01*
G01*
X127287Y153717D01*
G37*
X130250Y295197D02*
X128584Y298082D01*
G75*
G03*
X131916I1666J962D01*
G01*
X130250Y295197D01*
G36*
X130250Y295197D02*
X128584Y298082D01*
G75*
G03*
X131916I1666J962D01*
G01*
X130250Y295197D01*
G37*
Y299044D02*
Y280914D01*
X126500Y277164D01*
Y256414D01*
X120750Y250664D01*
Y172914D01*
X122750Y170914D01*
X130250D01*
X135250Y165914D01*
X131946Y169218D02*
X135855Y168171D01*
G75*
G03*
X132993Y165309I-605J-2257D01*
G01*
X131946Y169218D01*
G36*
X131946Y169218D02*
X135855Y168171D01*
G75*
G03*
X132993Y165309I-605J-2257D01*
G01*
X131946Y169218D01*
G37*
X132681Y137233D02*
Y153345D01*
X135250Y155914D01*
X137750D01*
X139000Y157164D01*
X145250D01*
X146500Y158414D01*
X152750D01*
X155250Y160914D01*
Y165914D01*
X132681Y142536D02*
X134978Y138558D01*
G75*
G03*
X130385I-2296J-1326D01*
G01*
X132681Y142536D01*
G36*
X132681Y142536D02*
X134978Y138558D01*
G75*
G03*
X130385I-2296J-1326D01*
G01*
X132681Y142536D01*
G37*
X135250Y161241D02*
X133226Y164746D01*
G75*
G03*
X137274I2024J1169D01*
G01*
X135250Y161241D01*
G36*
X135250Y161241D02*
X133226Y164746D01*
G75*
G03*
X137274I2024J1169D01*
G01*
X135250Y161241D01*
G37*
X138075Y148414D02*
Y153739D01*
X140250Y155914D01*
X146500D01*
X147750Y157164D01*
X162750D01*
X165250Y159664D01*
Y165914D01*
X138075Y153717D02*
X140371Y149739D01*
G75*
G03*
X135778I-2296J-1326D01*
G01*
X138075Y153717D01*
G36*
X138075Y153717D02*
X140371Y149739D01*
G75*
G03*
X135778I-2296J-1326D01*
G01*
X138075Y153717D01*
G37*
X140250Y263937D02*
X138584Y266822D01*
G75*
G03*
X141916I1666J962D01*
G01*
X140250Y263937D01*
G36*
X140250Y263937D02*
X138584Y266822D01*
G75*
G03*
X141916I1666J962D01*
G01*
X140250Y263937D01*
G37*
X141823Y169091D02*
X145769Y168192D01*
G75*
G03*
X143018Y165224I-519J-2278D01*
G01*
X141823Y169091D01*
G36*
X141823Y169091D02*
X145769Y168192D01*
G75*
G03*
X143018Y165224I-519J-2278D01*
G01*
X141823Y169091D01*
G37*
X143469Y137233D02*
X149650Y143414D01*
X162750D01*
X165250Y145914D01*
Y154668D01*
X167746Y157164D01*
X177679D01*
X180179Y159664D01*
Y169542D01*
X172750Y176971D01*
X152943D01*
X150250Y179664D01*
Y213414D01*
X145250Y218414D01*
Y243414D01*
Y161241D02*
X143226Y164746D01*
G75*
G03*
X147274I2024J1169D01*
G01*
X145250Y161241D01*
G36*
X145250Y161241D02*
X143226Y164746D01*
G75*
G03*
X147274I2024J1169D01*
G01*
X145250Y161241D01*
G37*
Y165914D02*
X145000D01*
X139309Y171605D01*
X134809D01*
X129250Y177164D01*
Y251164D01*
X140250Y262164D01*
Y267784D01*
X145250Y236047D02*
X147587Y240096D01*
X142913D01*
X145250Y236047D01*
G36*
X145250Y236047D02*
X147587Y240096D01*
X142913D01*
X145250Y236047D01*
G37*
X147219Y140983D02*
X146030Y136546D01*
G75*
G03*
X142782Y139794I-2561J686D01*
G01*
X147219Y140983D01*
G36*
X147219Y140983D02*
X146030Y136546D01*
G75*
G03*
X142782Y139794I-2561J686D01*
G01*
X147219Y140983D01*
G37*
X148862Y153717D02*
X151159Y149739D01*
G75*
G03*
X146566I-2296J-1326D01*
G01*
X148862Y153717D01*
G36*
X148862Y153717D02*
X151159Y149739D01*
G75*
G03*
X146566I-2296J-1326D01*
G01*
X148862Y153717D01*
G37*
X150250Y231914D02*
X156750Y225414D01*
X170750D01*
X175250Y220914D01*
Y183414D01*
X150250Y295197D02*
X148584Y298082D01*
G75*
G03*
X151916I1666J962D01*
G01*
X150250Y295197D01*
G36*
X150250Y295197D02*
X148584Y298082D01*
G75*
G03*
X151916I1666J962D01*
G01*
X150250Y295197D01*
G37*
X151717Y230447D02*
X149981Y230912D01*
G75*
G03*
X151252Y232182I269J1002D01*
G01*
X151717Y230447D01*
G36*
X151717Y230447D02*
X149981Y230912D01*
G75*
G03*
X151252Y232182I269J1002D01*
G01*
X151717Y230447D01*
G37*
X151946Y169218D02*
X155855Y168171D01*
G75*
G03*
X152993Y165309I-605J-2257D01*
G01*
X151946Y169218D01*
G36*
X151946Y169218D02*
X155855Y168171D01*
G75*
G03*
X152993Y165309I-605J-2257D01*
G01*
X151946Y169218D01*
G37*
X155250Y161241D02*
X153226Y164746D01*
G75*
G03*
X157274I2024J1169D01*
G01*
X155250Y161241D01*
G36*
X155250Y161241D02*
X153226Y164746D01*
G75*
G03*
X157274I2024J1169D01*
G01*
X155250Y161241D01*
G37*
Y165914D02*
X147937Y173227D01*
X135937D01*
X130750Y178414D01*
Y250164D01*
X145250Y264664D01*
Y277164D01*
X150250Y282164D01*
Y299044D01*
X159250Y227914D02*
X171250D01*
X185250Y213914D01*
Y183414D01*
X161325Y227914D02*
X159769Y227015D01*
G75*
G03*
Y228812I-519J898D01*
G01*
X161325Y227914D01*
G36*
X161325Y227914D02*
X159769Y227015D01*
G75*
G03*
Y228812I-519J898D01*
G01*
X161325Y227914D01*
G37*
X161946Y169218D02*
X165855Y168171D01*
G75*
G03*
X162993Y165309I-605J-2257D01*
G01*
X161946Y169218D01*
G36*
X161946Y169218D02*
X165855Y168171D01*
G75*
G03*
X162993Y165309I-605J-2257D01*
G01*
X161946Y169218D01*
G37*
X165250Y161241D02*
X163226Y164746D01*
G75*
G03*
X167274I2024J1169D01*
G01*
X165250Y161241D01*
G36*
X165250Y161241D02*
X163226Y164746D01*
G75*
G03*
X167274I2024J1169D01*
G01*
X165250Y161241D01*
G37*
Y165914D02*
X156689Y174475D01*
X141939D01*
X139250Y177164D01*
Y250664D01*
X143250Y254664D01*
X165500D01*
X170250Y259414D01*
Y267784D01*
Y263937D02*
X168584Y266822D01*
G75*
G03*
X171916I1666J962D01*
G01*
X170250Y263937D01*
G36*
X170250Y263937D02*
X168584Y266822D01*
G75*
G03*
X171916I1666J962D01*
G01*
X170250Y263937D01*
G37*
Y295197D02*
X168584Y298082D01*
G75*
G03*
X171916I1666J962D01*
G01*
X170250Y295197D01*
G36*
X170250Y295197D02*
X168584Y298082D01*
G75*
G03*
X171916I1666J962D01*
G01*
X170250Y295197D01*
G37*
X171946Y169218D02*
X175855Y168171D01*
G75*
G03*
X172993Y165309I-605J-2257D01*
G01*
X171946Y169218D01*
G36*
X171946Y169218D02*
X175855Y168171D01*
G75*
G03*
X172993Y165309I-605J-2257D01*
G01*
X171946Y169218D01*
G37*
X175250Y161241D02*
X173226Y164746D01*
G75*
G03*
X177274I2024J1169D01*
G01*
X175250Y161241D01*
G36*
X175250Y161241D02*
X173226Y164746D01*
G75*
G03*
X177274I2024J1169D01*
G01*
X175250Y161241D01*
G37*
Y165914D02*
Y160914D01*
X172750Y158414D01*
X166500D01*
X164000Y155914D01*
X150250D01*
X148862Y154526D01*
Y148414D01*
X175250Y165914D02*
X165441Y175723D01*
X143441D01*
X140750Y178414D01*
Y250414D01*
X143750Y253414D01*
X167750D01*
X174000Y259664D01*
Y277164D01*
X170250Y280914D01*
Y299044D01*
X175250Y190780D02*
X172913Y186731D01*
X177587D01*
X175250Y190780D01*
G36*
X175250Y190780D02*
X172913Y186731D01*
X177587D01*
X175250Y190780D01*
G37*
X179069Y118031D02*
Y120393D01*
X180250D02*
X177888D01*
X177415Y118031D02*
Y120393D01*
Y119015D02*
X177179Y119409D01*
X176707Y119606D01*
X176234D01*
X175762Y119409D01*
X175526Y119015D01*
Y118031D01*
X173182Y118228D02*
X173419Y118031D01*
X173891D01*
X174363D01*
X174836Y118228D01*
X175072Y118621D01*
Y119212D01*
X174836Y119409D01*
X174363Y119606D01*
X173891D01*
X173419Y119409D01*
X173182Y119212D01*
Y119015D01*
X173419Y118818D01*
X173891Y118621D01*
X174363D01*
X174836Y118818D01*
X175072Y119015D01*
X172729Y118031D02*
Y119606D01*
Y119015D02*
X172493Y119409D01*
X172020Y119606D01*
X171548D01*
X171075Y119409D01*
X168722Y118228D02*
X168959Y118031D01*
X169431D01*
X169904D01*
X170376Y118228D01*
X170612Y118621D01*
Y119212D01*
X170376Y119409D01*
X169904Y119606D01*
X169431D01*
X168959Y119409D01*
X168722Y119212D01*
Y119015D01*
X168959Y118818D01*
X169431Y118621D01*
X169904D01*
X170376Y118818D01*
X170612Y119015D01*
X166568Y118031D02*
Y119606D01*
Y120196D02*
X166115Y118228D02*
X165642Y118031D01*
X164697D01*
X164225Y118228D01*
Y118621D01*
X164697Y118818D01*
X165642D01*
X166115Y119015D01*
Y119409D01*
X165642Y119606D01*
X164697D01*
X164225Y119409D01*
X162070Y118031D02*
Y119606D01*
Y119015D02*
X161834Y119409D01*
X161362Y119606D01*
X160889D01*
X160417Y119409D01*
X160181Y119015D01*
Y118031D01*
X159727Y118621D02*
X159491Y118228D01*
X159019Y118031D01*
X158546D01*
X158074Y118228D01*
X157837Y118621D01*
Y119015D01*
X158074Y119409D01*
X158546Y119606D01*
X159019D01*
X159491Y119409D01*
X159727Y119015D01*
Y118621D01*
X153793Y118228D02*
X154030Y118031D01*
X154502D01*
X154974D01*
X155447Y118228D01*
X155683Y118621D01*
Y119212D01*
X155447Y119409D01*
X154974Y119606D01*
X154502D01*
X154030Y119409D01*
X153793Y119212D01*
Y119015D01*
X154030Y118818D01*
X154502Y118621D01*
X154974D01*
X155447Y118818D01*
X155683Y119015D01*
X153340Y119409D02*
X152867Y119606D01*
X152159D01*
X151686Y119409D01*
X151450Y119015D01*
Y118424D01*
X151686Y118228D01*
X152159Y118031D01*
X152631D01*
X153104Y118228D01*
X153340Y118424D01*
Y118621D01*
X153104Y118818D01*
X152631Y119015D01*
X152159D01*
X151686Y118818D01*
X151450Y118621D01*
Y118424D02*
Y118031D01*
X150996Y118228D02*
X150524Y118031D01*
X149579D01*
X149107Y118228D01*
Y118621D01*
X149579Y118818D01*
X150524D01*
X150996Y119015D01*
Y119409D01*
X150524Y119606D01*
X149579D01*
X149107Y119409D01*
X148653Y119606D02*
X148417Y118818D01*
X147944Y118424D01*
X147472D01*
X147000Y118818D01*
X146763Y119606D01*
X147000Y118818D02*
X147236Y118031D01*
X147472Y117637D01*
X147944Y117440D01*
X148417Y117637D01*
X144609Y119606D02*
Y118228D01*
X144373Y118031D01*
X143900D01*
X143664Y118228D01*
Y118818D01*
Y118228D02*
X143428Y118031D01*
X142956D01*
X142719Y118228D01*
Y119606D01*
X142266Y119409D02*
X141793Y119606D01*
X141085D01*
X140612Y119409D01*
X140376Y119015D01*
Y118424D01*
X140612Y118228D01*
X141085Y118031D01*
X141557D01*
X142030Y118228D01*
X142266Y118424D01*
Y118621D01*
X142030Y118818D01*
X141557Y119015D01*
X141085D01*
X140612Y118818D01*
X140376Y118621D01*
Y118424D02*
Y118031D01*
X139922Y119606D02*
X139686Y118818D01*
X139214Y118424D01*
X138741D01*
X138269Y118818D01*
X138033Y119606D01*
X138269Y118818D02*
X138505Y118031D01*
X138741Y117637D01*
X139214Y117440D01*
X139686Y117637D01*
X135878Y119606D02*
X134776D01*
X135327Y119999D02*
Y118228D01*
X135091Y118031D01*
X134855D01*
X134619Y118228D01*
X134178Y118621D02*
X133941Y118228D01*
X133469Y118031D01*
X132996D01*
X132524Y118228D01*
X132288Y118621D01*
Y119015D01*
X132524Y119409D01*
X132996Y119606D01*
X133469D01*
X133941Y119409D01*
X134178Y119015D01*
Y118621D01*
X130133Y119409D02*
X129661Y119606D01*
X128952D01*
X128480Y119409D01*
X128244Y119015D01*
Y118424D01*
X128480Y118228D01*
X128952Y118031D01*
X129425D01*
X129897Y118228D01*
X130133Y118424D01*
Y118621D01*
X129897Y118818D01*
X129425Y119015D01*
X128952D01*
X128480Y118818D01*
X128244Y118621D01*
Y118424D02*
Y118031D01*
X125900Y119409D02*
X126373Y119606D01*
X127081D01*
X127554Y119409D01*
X127790Y119015D01*
Y118621D01*
X127554Y118228D01*
X127081Y118031D01*
X126373D01*
X125900Y118228D01*
X123557Y119409D02*
X124030Y119606D01*
X124738D01*
X125211Y119409D01*
X125447Y119015D01*
Y118621D01*
X125211Y118228D01*
X124738Y118031D01*
X124030D01*
X123557Y118228D01*
X123104Y118621D02*
X122867Y118228D01*
X122395Y118031D01*
X121922D01*
X121450Y118228D01*
X121214Y118621D01*
Y119015D01*
X121450Y119409D01*
X121922Y119606D01*
X122395D01*
X122867Y119409D01*
X123104Y119015D01*
Y118621D01*
X120760Y118031D02*
Y119606D01*
Y119409D02*
X120524Y119606D01*
X120052D01*
X119815Y119409D01*
Y118818D01*
Y119409D02*
X119579Y119606D01*
X119107D01*
X118870Y119409D01*
Y118031D01*
X118417Y119606D02*
Y117440D01*
Y118621D02*
X118181Y118228D01*
X117708Y118031D01*
X117236D01*
X116763Y118228D01*
X116527Y118621D01*
Y119015D01*
X116763Y119409D01*
X117236Y119606D01*
X117708D01*
X118181Y119409D01*
X118417Y119015D01*
Y118621D01*
X115837Y118031D02*
X116074D01*
Y120393D01*
X115393Y118031D02*
Y119606D01*
Y120196D02*
X114940Y118228D02*
X114467Y118031D01*
X113522D01*
X113050Y118228D01*
Y118621D01*
X113522Y118818D01*
X114467D01*
X114940Y119015D01*
Y119409D01*
X114467Y119606D01*
X113522D01*
X113050Y119409D01*
X112596Y118031D02*
Y120393D01*
Y119015D02*
X112360Y119409D01*
X111888Y119606D01*
X111415D01*
X110943Y119409D01*
X110707Y119015D01*
Y118031D01*
X108552Y119409D02*
X108080Y119606D01*
X107371D01*
X106899Y119409D01*
X106663Y119015D01*
Y118424D01*
X106899Y118228D01*
X107371Y118031D01*
X107844D01*
X108316Y118228D01*
X108552Y118424D01*
Y118621D01*
X108316Y118818D01*
X107844Y119015D01*
X107371D01*
X106899Y118818D01*
X106663Y118621D01*
Y118424D02*
Y118031D01*
X106209D02*
Y119606D01*
Y119015D02*
X105973Y119409D01*
X105500Y119606D01*
X105028D01*
X104556Y119409D01*
X104319Y119015D01*
Y118031D01*
X103866Y119606D02*
X103630Y118818D01*
X103157Y118424D01*
X102685D01*
X102212Y118818D01*
X101976Y119606D01*
X102212Y118818D02*
X102448Y118031D01*
X102685Y117637D01*
X103157Y117440D01*
X103630Y117637D01*
X101522Y119606D02*
X100420D01*
X100971Y119999D02*
Y118228D01*
X100735Y118031D01*
X100499D01*
X100263Y118228D01*
X99822Y118031D02*
Y120393D01*
Y119015D02*
X99585Y119409D01*
X99113Y119606D01*
X98641D01*
X98168Y119409D01*
X97932Y119015D01*
Y118031D01*
X97478D02*
Y119606D01*
Y120196D02*
X97025Y118031D02*
Y119606D01*
Y119015D02*
X96789Y119409D01*
X96316Y119606D01*
X95844D01*
X95371Y119409D01*
X95135Y119015D01*
Y118031D01*
X92792Y119015D02*
X93028Y119409D01*
X93500Y119606D01*
X93973D01*
X94445Y119409D01*
X94681Y119015D01*
Y118818D01*
X94445Y118424D01*
X93973Y118228D01*
X93500D01*
X93028Y118424D01*
X92792Y118818D01*
Y119606D02*
Y118031D01*
X93028Y117637D01*
X93500Y117440D01*
X94209D01*
X94681Y117637D01*
X92102Y118031D02*
X91866Y118228D01*
X92102Y118424D01*
X92338Y118228D01*
X92102Y118031D01*
X180250Y295197D02*
X178584Y298082D01*
G75*
G03*
X181916I1666J962D01*
G01*
X180250Y295197D01*
G36*
X180250Y295197D02*
X178584Y298082D01*
G75*
G03*
X181916I1666J962D01*
G01*
X180250Y295197D01*
G37*
Y299044D02*
Y280914D01*
X176500Y277164D01*
Y259664D01*
X179000Y257164D01*
X184000D01*
X181925D02*
X183481Y258062D01*
G75*
G03*
Y256265I519J-898D01*
G01*
X181925Y257164D01*
G36*
X181925Y257164D02*
X183481Y258062D01*
G75*
G03*
Y256265I519J-898D01*
G01*
X181925Y257164D01*
G37*
X185250Y190780D02*
X182913Y186731D01*
X187587D01*
X185250Y190780D01*
G36*
X185250Y190780D02*
X182913Y186731D01*
X187587D01*
X185250Y190780D01*
G37*
D02*
D23*
X78920Y203414D02*
X74423Y206010D01*
Y200817D01*
X78920Y203414D01*
G36*
X78920Y203414D02*
X74423Y206010D01*
Y200817D01*
X78920Y203414D01*
G37*
D02*
D24*
X41911Y263414D02*
X39911D01*
X41911Y273414D02*
X39911D01*
X41911Y283414D02*
X39911D01*
X42750Y262575D02*
Y260575D01*
Y264252D02*
Y266252D01*
Y272575D02*
Y270575D01*
Y274252D02*
Y276252D01*
Y282575D02*
Y280575D01*
Y284252D02*
Y286252D01*
X118526Y299044D02*
X116526D01*
X120250Y297319D02*
Y295319D01*
Y300768D02*
Y302768D01*
X121974Y299044D02*
X123974D01*
X151803Y137233D02*
X149803D01*
X154256Y134780D02*
Y132780D01*
Y139685D02*
Y141685D01*
X156709Y137233D02*
X158709D01*
X183738Y164402D02*
X182324Y162988D01*
X183738Y167426D02*
X182324Y168840D01*
X186762Y164402D02*
X188176Y162988D01*
X186762Y167426D02*
X188176Y168840D01*
X195250Y238945D02*
Y236945D01*
Y247882D02*
Y249882D01*
X197750Y243414D02*
X199748D01*
X202750D02*
X200748D01*
X205250Y238945D02*
Y236945D01*
Y247882D02*
Y249882D01*
X207750Y243414D02*
X209748D01*
X212750Y183414D02*
X210748D01*
X215250Y178945D02*
Y176945D01*
Y187882D02*
Y189882D01*
X217750Y183414D02*
X219748D01*
D02*
D25*
X51195Y143414D02*
X42750D01*
X51195Y153414D02*
X42750D01*
X51195Y163414D02*
X42750D01*
X51195Y173414D02*
X42750D01*
X51195Y183414D02*
X42750D01*
X51195Y193414D02*
X42750D01*
X51195Y213414D02*
X42750D01*
X51195Y223414D02*
X42750D01*
X51195Y263414D02*
X42750D01*
X51195Y273414D02*
X42750D01*
X51195Y283414D02*
X42750D01*
X69305Y143414D02*
X60250D01*
X69305Y153414D02*
X77750D01*
X69305Y163414D02*
X77750D01*
X69305Y173414D02*
X77750D01*
X69305Y183414D02*
X77750D01*
X69305Y213414D02*
X77750D01*
X69305Y223414D02*
X77750D01*
X69305Y233414D02*
X77750D01*
X69305Y243414D02*
X77750D01*
X69305Y253414D02*
X77750D01*
X190250Y295131D02*
X191224Y296819D01*
X189276D01*
X190250Y295131D01*
G36*
X190250Y295131D02*
X191224Y296819D01*
X189276D01*
X190250Y295131D01*
G37*
Y299044D02*
Y275914D01*
X185250Y270914D01*
Y264664D01*
X190250Y259664D01*
Y212164D01*
X195250Y207164D01*
Y183414D01*
Y188882D02*
X193735Y186257D01*
X196765D01*
X195250Y188882D01*
G36*
X195250Y188882D02*
X193735Y186257D01*
X196765D01*
X195250Y188882D01*
G37*
D02*
D26*
X60368Y255722D03*
X75250Y123414D03*
Y303397D03*
X85250Y185914D03*
Y228414D03*
Y243414D03*
X94065Y273414D03*
X101500Y225914D03*
X105250Y123414D03*
Y153414D03*
Y185914D03*
Y303397D03*
X107669Y243414D03*
Y258414D03*
X112411Y273414D03*
X125250Y213414D03*
X130250Y163414D03*
X135250Y123414D03*
Y198414D03*
Y213414D03*
Y283414D03*
Y303414D03*
X140250Y163414D03*
X145250Y213414D03*
X150250Y163414D03*
X155250Y213414D03*
X160250Y163414D03*
Y200914D03*
X165250Y123414D03*
Y283414D03*
Y303414D03*
X170250Y150513D03*
Y163414D03*
X172750Y173414D03*
X175250Y253414D03*
X180179Y173414D03*
X180250Y200914D03*
X180304Y213414D03*
X195250Y123414D03*
Y173414D03*
Y283414D03*
Y303397D03*
X205250Y228414D03*
X206500Y200914D03*
X215250Y283414D03*
X225250Y140914D03*
Y200914D03*
Y228414D03*
D02*
D27*
X42750Y143414D03*
Y153414D03*
Y163414D03*
Y173414D03*
Y183414D03*
Y193414D03*
Y213414D03*
Y223414D03*
Y263414D03*
Y273414D03*
Y283414D03*
X60250Y143414D03*
X77750Y153414D03*
Y163414D03*
Y173414D03*
Y183414D03*
Y213414D03*
Y223414D03*
Y233414D03*
Y243414D03*
Y253414D03*
Y273414D03*
X102750Y208414D03*
X106500Y217164D03*
X109750Y212164D03*
X150250Y231914D03*
X159250Y227914D03*
X184000Y257164D03*
D02*
D28*
X116500Y148414D03*
X121894Y137233D03*
X127287Y148414D03*
X132681Y137233D03*
X138075Y148414D03*
X143469Y137233D03*
X148862Y148414D03*
X154256Y137233D03*
X159650Y148414D03*
D02*
D29*
X88882Y142823D03*
X187268D03*
D02*
D72*
X51195Y143414D03*
Y153414D03*
Y163414D03*
Y173414D03*
Y183414D03*
Y193414D03*
Y203414D03*
Y213414D03*
Y223414D03*
Y233414D03*
Y243414D03*
Y253414D03*
Y263414D03*
Y273414D03*
Y283414D03*
X69305Y143414D03*
Y153414D03*
Y163414D03*
Y173414D03*
Y183414D03*
Y193414D03*
Y203414D03*
Y213414D03*
Y223414D03*
Y233414D03*
Y243414D03*
Y253414D03*
Y263414D03*
Y273414D03*
Y283414D03*
D02*
D74*
X115250Y183414D03*
Y243414D03*
X125250Y183414D03*
Y243414D03*
X135250Y183414D03*
Y243414D03*
X145250Y183414D03*
Y243414D03*
X155250Y183414D03*
Y243414D03*
X165250Y183414D03*
Y243414D03*
X175250Y183414D03*
Y243414D03*
X185250Y183414D03*
Y243414D03*
X195250Y183414D03*
Y243414D03*
X205250Y183414D03*
Y243414D03*
X215250Y183414D03*
Y243414D03*
X225250Y183414D03*
Y243414D03*
D02*
D123*
X115250Y165914D03*
X125250D03*
X135250D03*
X145250D03*
X155250D03*
X165250D03*
X175250D03*
X185250D03*
X195250D03*
D02*
D132*
X190250Y299044D03*
D02*
D133*
X120250Y267784D03*
Y299044D03*
X130250Y267784D03*
Y299044D03*
X140250Y267784D03*
Y299044D03*
X150250Y267784D03*
Y299044D03*
X160250Y267784D03*
Y299044D03*
X170250Y267784D03*
Y299044D03*
X180250Y267784D03*
Y299044D03*
X190250Y267784D03*
X0Y0D02*
M02*
