G04 DesignSpark PCB PRO Gerber Version 10.0 Build 5299*
G04 #@! TF.Part,Single*
G04 #@! TF.FileFunction,Drillmap*
G04 #@! TF.FilePolarity,Positive*
%FSLAX35Y35*%
%MOIN*%
%ADD10C,0.00500*%
G04 #@! TA.AperFunction,ViaPad*
%ADD85C,0.10000*%
G04 #@! TD.AperFunction*
X0Y0D02*
D02*
D10*
X52750Y149351D02*
Y153101D01*
X55875D01*
X55250Y151226D02*
X52750D01*
Y149351D02*
X55875D01*
X52750Y159351D02*
Y163101D01*
X55875D01*
X55250Y161226D02*
X52750D01*
Y159351D02*
X55875D01*
X52750Y169351D02*
Y173101D01*
X55875D01*
X55250Y171226D02*
X52750D01*
Y169351D02*
X55875D01*
X52750Y179351D02*
Y183101D01*
X55875D01*
X55250Y181226D02*
X52750D01*
Y179351D02*
X55875D01*
X52750Y189351D02*
Y193101D01*
X55875D01*
X55250Y191226D02*
X52750D01*
Y189351D02*
X55875D01*
X52750Y199351D02*
Y203101D01*
X55875D01*
X55250Y201226D02*
X52750D01*
Y199351D02*
X55875D01*
X52750Y219351D02*
Y223101D01*
X55875D01*
X55250Y221226D02*
X52750D01*
Y219351D02*
X55875D01*
X52750Y229351D02*
Y233101D01*
X55875D01*
X55250Y231226D02*
X52750D01*
Y229351D02*
X55875D01*
X52750Y269351D02*
Y273101D01*
X55875D01*
X55250Y271226D02*
X52750D01*
Y269351D02*
X55875D01*
X52750Y279351D02*
Y283101D01*
X55875D01*
X55250Y281226D02*
X52750D01*
Y279351D02*
X55875D01*
X52750Y289351D02*
Y293101D01*
X55875D01*
X55250Y291226D02*
X52750D01*
Y289351D02*
X55875D01*
X58636Y132938D02*
X60198Y136688D01*
X61761Y132938D01*
X59261Y134500D02*
X61136D01*
X63636Y136688D02*
X65198Y132938D01*
X66761Y136688D01*
X58636Y306166D02*
X60198Y309916D01*
X61761Y306166D01*
X59261Y307729D02*
X61136D01*
X63636Y309916D02*
X65198Y306166D01*
X66761Y309916D01*
X70250Y149351D02*
Y153101D01*
X73375D01*
X72750Y151226D02*
X70250D01*
Y149351D02*
X73375D01*
X70250Y154351D02*
Y158101D01*
X72437D01*
X73063Y157789D01*
X73375Y157164D01*
X73063Y156539D01*
X72437Y156226D01*
X70250D01*
X73375Y164976D02*
X73063Y164664D01*
X72437Y164351D01*
X71500D01*
X70875Y164664D01*
X70563Y164976D01*
X70250Y165601D01*
Y166851D01*
X70563Y167476D01*
X70875Y167789D01*
X71500Y168101D01*
X72437D01*
X73063Y167789D01*
X73375Y167476D01*
Y274976D02*
X73063Y274664D01*
X72437Y274351D01*
X71500D01*
X70875Y274664D01*
X70563Y274976D01*
X70250Y275601D01*
Y276851D01*
X70563Y277476D01*
X70875Y277789D01*
X71500Y278101D01*
X72437D01*
X73063Y277789D01*
X73375Y277476D01*
X70250Y284351D02*
Y288101D01*
X72437D01*
X73063Y287789D01*
X73375Y287164D01*
X73063Y286539D01*
X72437Y286226D01*
X70250D01*
X72556Y263222D02*
X73493D01*
Y262909D01*
X73181Y262285D01*
X72868Y261972D01*
X72243Y261659D01*
X71618D01*
X70993Y261972D01*
X70681Y262285D01*
X70368Y262909D01*
Y264159D01*
X70681Y264785D01*
X70993Y265097D01*
X71618Y265409D01*
X72243D01*
X72868Y265097D01*
X73181Y264785D01*
X73493Y264159D01*
X74384Y132938D02*
X75946Y136688D01*
X77509Y132938D01*
X75009Y134500D02*
X76884D01*
X79384Y136688D02*
X79696Y132938D01*
X80946Y134813D01*
X82196Y132938D01*
X82509Y136688D01*
X74384Y306166D02*
X75946Y309916D01*
X77509Y306166D01*
X75009Y307729D02*
X76884D01*
X79384Y309916D02*
X79696Y306166D01*
X80946Y308041D01*
X82196Y306166D01*
X82509Y309916D01*
X87437Y130914D02*
X88375D01*
Y130601D01*
X88063Y129976D01*
X87750Y129664D01*
X87125Y129351D01*
X86500D01*
X85875Y129664D01*
X85563Y129976D01*
X85250Y130601D01*
Y131851D01*
X85563Y132476D01*
X85875Y132789D01*
X86500Y133101D01*
X87125D01*
X87750Y132789D01*
X88063Y132476D01*
X88375Y131851D01*
X87437Y310897D02*
X88375D01*
Y310584D01*
X88063Y309959D01*
X87750Y309647D01*
X87125Y309334D01*
X86500D01*
X85875Y309647D01*
X85563Y309959D01*
X85250Y310584D01*
Y311834D01*
X85563Y312459D01*
X85875Y312772D01*
X86500Y313084D01*
X87125D01*
X87750Y312772D01*
X88063Y312459D01*
X88375Y311834D01*
X87750Y159351D02*
Y163101D01*
X90875D01*
X90250Y161226D02*
X87750D01*
Y159351D02*
X90875D01*
X87750Y169351D02*
Y173101D01*
X90875D01*
X90250Y171226D02*
X87750D01*
Y169351D02*
X90875D01*
X87750Y179351D02*
Y183101D01*
X90875D01*
X90250Y181226D02*
X87750D01*
Y179351D02*
X90875D01*
X87750Y189351D02*
Y193101D01*
X90875D01*
X90250Y191226D02*
X87750D01*
Y189351D02*
X90875D01*
X87750Y219351D02*
Y223101D01*
X90875D01*
X90250Y221226D02*
X87750D01*
Y219351D02*
X90875D01*
X87750Y229351D02*
Y233101D01*
X90875D01*
X90250Y231226D02*
X87750D01*
Y229351D02*
X90875D01*
X87750Y239351D02*
Y243101D01*
X90875D01*
X90250Y241226D02*
X87750D01*
Y239351D02*
X90875D01*
X87750Y249351D02*
Y253101D01*
X90875D01*
X90250Y251226D02*
X87750D01*
Y249351D02*
X90875D01*
X87750Y259351D02*
Y263101D01*
X90875D01*
X90250Y261226D02*
X87750D01*
Y259351D02*
X90875D01*
X87750Y279351D02*
Y283101D01*
X90875D01*
X90250Y281226D02*
X87750D01*
Y279351D02*
X90875D01*
X97437Y193414D02*
X98375D01*
Y193101D01*
X98063Y192476D01*
X97750Y192164D01*
X97125Y191851D01*
X96500D01*
X95875Y192164D01*
X95563Y192476D01*
X95250Y193101D01*
Y194351D01*
X95563Y194976D01*
X95875Y195289D01*
X96500Y195601D01*
X97125D01*
X97750Y195289D01*
X98063Y194976D01*
X98375Y194351D01*
X97437Y235914D02*
X98375D01*
Y235601D01*
X98063Y234976D01*
X97750Y234664D01*
X97125Y234351D01*
X96500D01*
X95875Y234664D01*
X95563Y234976D01*
X95250Y235601D01*
Y236851D01*
X95563Y237476D01*
X95875Y237789D01*
X96500Y238101D01*
X97125D01*
X97750Y237789D01*
X98063Y237476D01*
X98375Y236851D01*
X97437Y250914D02*
X98375D01*
Y250601D01*
X98063Y249976D01*
X97750Y249664D01*
X97125Y249351D01*
X96500D01*
X95875Y249664D01*
X95563Y249976D01*
X95250Y250601D01*
Y251851D01*
X95563Y252476D01*
X95875Y252789D01*
X96500Y253101D01*
X97125D01*
X97750Y252789D01*
X98063Y252476D01*
X98375Y251851D01*
X98882Y148761D02*
X100444Y152511D01*
X102007Y148761D01*
X99507Y150323D02*
X101382D01*
X103882Y148761D02*
Y152511D01*
Y150636D02*
X107007D01*
Y148761D02*
Y152511D01*
X106252Y280914D02*
X107190D01*
Y280601D01*
X106878Y279976D01*
X106565Y279664D01*
X105940Y279351D01*
X105315D01*
X104690Y279664D01*
X104378Y279976D01*
X104065Y280601D01*
Y281851D01*
X104378Y282476D01*
X104690Y282789D01*
X105315Y283101D01*
X105940D01*
X106565Y282789D01*
X106878Y282476D01*
X107190Y281851D01*
X113687Y233414D02*
X114625D01*
Y233101D01*
X114313Y232476D01*
X114000Y232164D01*
X113375Y231851D01*
X112750D01*
X112125Y232164D01*
X111813Y232476D01*
X111500Y233101D01*
Y234351D01*
X111813Y234976D01*
X112125Y235289D01*
X112750Y235601D01*
X113375D01*
X114000Y235289D01*
X114313Y234976D01*
X114625Y234351D01*
X112750Y214351D02*
Y218101D01*
X115875D01*
X115250Y216226D02*
X112750D01*
Y214351D02*
X115875D01*
X117437Y130914D02*
X118375D01*
Y130601D01*
X118063Y129976D01*
X117750Y129664D01*
X117125Y129351D01*
X116500D01*
X115875Y129664D01*
X115563Y129976D01*
X115250Y130601D01*
Y131851D01*
X115563Y132476D01*
X115875Y132789D01*
X116500Y133101D01*
X117125D01*
X117750Y132789D01*
X118063Y132476D01*
X118375Y131851D01*
X117437Y160914D02*
X118375D01*
Y160601D01*
X118063Y159976D01*
X117750Y159664D01*
X117125Y159351D01*
X116500D01*
X115875Y159664D01*
X115563Y159976D01*
X115250Y160601D01*
Y161851D01*
X115563Y162476D01*
X115875Y162789D01*
X116500Y163101D01*
X117125D01*
X117750Y162789D01*
X118063Y162476D01*
X118375Y161851D01*
X117437Y193414D02*
X118375D01*
Y193101D01*
X118063Y192476D01*
X117750Y192164D01*
X117125Y191851D01*
X116500D01*
X115875Y192164D01*
X115563Y192476D01*
X115250Y193101D01*
Y194351D01*
X115563Y194976D01*
X115875Y195289D01*
X116500Y195601D01*
X117125D01*
X117750Y195289D01*
X118063Y194976D01*
X118375Y194351D01*
X117437Y310897D02*
X118375D01*
Y310584D01*
X118063Y309959D01*
X117750Y309647D01*
X117125Y309334D01*
X116500D01*
X115875Y309647D01*
X115563Y309959D01*
X115250Y310584D01*
Y311834D01*
X115563Y312459D01*
X115875Y312772D01*
X116500Y313084D01*
X117125D01*
X117750Y312772D01*
X118063Y312459D01*
X118375Y311834D01*
X116500Y223101D02*
Y226851D01*
X119625D01*
X119000Y224976D02*
X116500D01*
Y223101D02*
X119625D01*
X119856Y250914D02*
X120794D01*
Y250601D01*
X120481Y249976D01*
X120169Y249664D01*
X119544Y249351D01*
X118919D01*
X118294Y249664D01*
X117981Y249976D01*
X117669Y250601D01*
Y251851D01*
X117981Y252476D01*
X118294Y252789D01*
X118919Y253101D01*
X119544D01*
X120169Y252789D01*
X120481Y252476D01*
X120794Y251851D01*
X119856Y265914D02*
X120794D01*
Y265601D01*
X120481Y264976D01*
X120169Y264664D01*
X119544Y264351D01*
X118919D01*
X118294Y264664D01*
X117981Y264976D01*
X117669Y265601D01*
Y266851D01*
X117981Y267476D01*
X118294Y267789D01*
X118919Y268101D01*
X119544D01*
X120169Y267789D01*
X120481Y267476D01*
X120794Y266851D01*
X119750Y218101D02*
Y221851D01*
X122875D01*
X122250Y219976D02*
X119750D01*
Y218101D02*
X122875D01*
X124598Y280914D02*
X125536D01*
Y280601D01*
X125224Y279976D01*
X124911Y279664D01*
X124286Y279351D01*
X123661D01*
X123036Y279664D01*
X122724Y279976D01*
X122411Y280601D01*
Y281851D01*
X122724Y282476D01*
X123036Y282789D01*
X123661Y283101D01*
X124286D01*
X124911Y282789D01*
X125224Y282476D01*
X125536Y281851D01*
X125250Y171851D02*
X126813Y175601D01*
X128375Y171851D01*
X125875Y173414D02*
X127750D01*
X130250Y171851D02*
X133375Y175601D01*
X130250D02*
X133375Y171851D01*
X128375Y189976D02*
X128063Y189664D01*
X127437Y189351D01*
X126500D01*
X125875Y189664D01*
X125563Y189976D01*
X125250Y190601D01*
Y191851D01*
X125563Y192476D01*
X125875Y192789D01*
X126500Y193101D01*
X127437D01*
X128063Y192789D01*
X128375Y192476D01*
Y249976D02*
X128063Y249664D01*
X127437Y249351D01*
X126500D01*
X125875Y249664D01*
X125563Y249976D01*
X125250Y250601D01*
Y251851D01*
X125563Y252476D01*
X125875Y252789D01*
X126500Y253101D01*
X127437D01*
X128063Y252789D01*
X128375Y252476D01*
X129625Y154976D02*
X129313Y154664D01*
X128687Y154351D01*
X127750D01*
X127125Y154664D01*
X126813Y154976D01*
X126500Y155601D01*
Y156851D01*
X126813Y157476D01*
X127125Y157789D01*
X127750Y158101D01*
X128687D01*
X129313Y157789D01*
X129625Y157476D01*
X130250Y273721D02*
X131813Y277471D01*
X133375Y273721D01*
X130875Y275284D02*
X132750D01*
X135250Y274346D02*
X135563Y274034D01*
X136187Y273721D01*
X136813Y274034D01*
X137125Y274346D01*
Y277471D01*
X137750D01*
X137125D02*
X135875D01*
X130250Y304981D02*
X131813Y308731D01*
X133375Y304981D01*
X130875Y306544D02*
X132750D01*
X135250Y305606D02*
X135563Y305294D01*
X136187Y304981D01*
X136813Y305294D01*
X137125Y305606D01*
Y308731D01*
X137750D01*
X137125D02*
X135875D01*
X135019Y143795D02*
X134706Y143483D01*
X134081Y143170D01*
X133144D01*
X132519Y143483D01*
X132206Y143795D01*
X131894Y144420D01*
Y145670D01*
X132206Y146295D01*
X132519Y146608D01*
X133144Y146920D01*
X134081D01*
X134706Y146608D01*
X135019Y146295D01*
X135250Y171851D02*
X136813Y175601D01*
X138375Y171851D01*
X135875Y173414D02*
X137750D01*
X140250Y171851D02*
X143375Y175601D01*
X140250D02*
X143375Y171851D01*
X138375Y189976D02*
X138063Y189664D01*
X137437Y189351D01*
X136500D01*
X135875Y189664D01*
X135563Y189976D01*
X135250Y190601D01*
Y191851D01*
X135563Y192476D01*
X135875Y192789D01*
X136500Y193101D01*
X137437D01*
X138063Y192789D01*
X138375Y192476D01*
X137437Y220914D02*
X138375D01*
Y220601D01*
X138063Y219976D01*
X137750Y219664D01*
X137125Y219351D01*
X136500D01*
X135875Y219664D01*
X135563Y219976D01*
X135250Y220601D01*
Y221851D01*
X135563Y222476D01*
X135875Y222789D01*
X136500Y223101D01*
X137125D01*
X137750Y222789D01*
X138063Y222476D01*
X138375Y221851D01*
Y249976D02*
X138063Y249664D01*
X137437Y249351D01*
X136500D01*
X135875Y249664D01*
X135563Y249976D01*
X135250Y250601D01*
Y251851D01*
X135563Y252476D01*
X135875Y252789D01*
X136500Y253101D01*
X137437D01*
X138063Y252789D01*
X138375Y252476D01*
X140413Y154976D02*
X140100Y154664D01*
X139475Y154351D01*
X138537D01*
X137913Y154664D01*
X137600Y154976D01*
X137287Y155601D01*
Y156851D01*
X137600Y157476D01*
X137913Y157789D01*
X138537Y158101D01*
X139475D01*
X140100Y157789D01*
X140413Y157476D01*
X142437Y170914D02*
X143375D01*
Y170601D01*
X143063Y169976D01*
X142750Y169664D01*
X142125Y169351D01*
X141500D01*
X140875Y169664D01*
X140563Y169976D01*
X140250Y170601D01*
Y171851D01*
X140563Y172476D01*
X140875Y172789D01*
X141500Y173101D01*
X142125D01*
X142750Y172789D01*
X143063Y172476D01*
X143375Y171851D01*
X140250Y273721D02*
X141813Y277471D01*
X143375Y273721D01*
X140875Y275284D02*
X142750D01*
X145250Y274346D02*
X145563Y274034D01*
X146187Y273721D01*
X146813Y274034D01*
X147125Y274346D01*
Y277471D01*
X147750D01*
X147125D02*
X145875D01*
X140250Y304981D02*
X141813Y308731D01*
X143375Y304981D01*
X140875Y306544D02*
X142750D01*
X145250Y305606D02*
X145563Y305294D01*
X146187Y304981D01*
X146813Y305294D01*
X147125Y305606D01*
Y308731D01*
X147750D01*
X147125D02*
X145875D01*
X145806Y143795D02*
X145494Y143483D01*
X144869Y143170D01*
X143931D01*
X143306Y143483D01*
X142994Y143795D01*
X142681Y144420D01*
Y145670D01*
X142994Y146295D01*
X143306Y146608D01*
X143931Y146920D01*
X144869D01*
X145494Y146608D01*
X145806Y146295D01*
X147437Y130914D02*
X148375D01*
Y130601D01*
X148063Y129976D01*
X147750Y129664D01*
X147125Y129351D01*
X146500D01*
X145875Y129664D01*
X145563Y129976D01*
X145250Y130601D01*
Y131851D01*
X145563Y132476D01*
X145875Y132789D01*
X146500Y133101D01*
X147125D01*
X147750Y132789D01*
X148063Y132476D01*
X148375Y131851D01*
X145250Y171851D02*
X146813Y175601D01*
X148375Y171851D01*
X145875Y173414D02*
X147750D01*
X150250Y171851D02*
X153375Y175601D01*
X150250D02*
X153375Y171851D01*
X148375Y189976D02*
X148063Y189664D01*
X147437Y189351D01*
X146500D01*
X145875Y189664D01*
X145563Y189976D01*
X145250Y190601D01*
Y191851D01*
X145563Y192476D01*
X145875Y192789D01*
X146500Y193101D01*
X147437D01*
X148063Y192789D01*
X148375Y192476D01*
X147437Y205914D02*
X148375D01*
Y205601D01*
X148063Y204976D01*
X147750Y204664D01*
X147125Y204351D01*
X146500D01*
X145875Y204664D01*
X145563Y204976D01*
X145250Y205601D01*
Y206851D01*
X145563Y207476D01*
X145875Y207789D01*
X146500Y208101D01*
X147125D01*
X147750Y207789D01*
X148063Y207476D01*
X148375Y206851D01*
X147437Y220914D02*
X148375D01*
Y220601D01*
X148063Y219976D01*
X147750Y219664D01*
X147125Y219351D01*
X146500D01*
X145875Y219664D01*
X145563Y219976D01*
X145250Y220601D01*
Y221851D01*
X145563Y222476D01*
X145875Y222789D01*
X146500Y223101D01*
X147125D01*
X147750Y222789D01*
X148063Y222476D01*
X148375Y221851D01*
Y249976D02*
X148063Y249664D01*
X147437Y249351D01*
X146500D01*
X145875Y249664D01*
X145563Y249976D01*
X145250Y250601D01*
Y251851D01*
X145563Y252476D01*
X145875Y252789D01*
X146500Y253101D01*
X147437D01*
X148063Y252789D01*
X148375Y252476D01*
X147437Y290914D02*
X148375D01*
Y290601D01*
X148063Y289976D01*
X147750Y289664D01*
X147125Y289351D01*
X146500D01*
X145875Y289664D01*
X145563Y289976D01*
X145250Y290601D01*
Y291851D01*
X145563Y292476D01*
X145875Y292789D01*
X146500Y293101D01*
X147125D01*
X147750Y292789D01*
X148063Y292476D01*
X148375Y291851D01*
X147437Y310914D02*
X148375D01*
Y310601D01*
X148063Y309976D01*
X147750Y309664D01*
X147125Y309351D01*
X146500D01*
X145875Y309664D01*
X145563Y309976D01*
X145250Y310601D01*
Y311851D01*
X145563Y312476D01*
X145875Y312789D01*
X146500Y313101D01*
X147125D01*
X147750Y312789D01*
X148063Y312476D01*
X148375Y311851D01*
X151200Y154976D02*
X150887Y154664D01*
X150262Y154351D01*
X149325D01*
X148700Y154664D01*
X148387Y154976D01*
X148075Y155601D01*
Y156851D01*
X148387Y157476D01*
X148700Y157789D01*
X149325Y158101D01*
X150262D01*
X150887Y157789D01*
X151200Y157476D01*
X152437Y170914D02*
X153375D01*
Y170601D01*
X153063Y169976D01*
X152750Y169664D01*
X152125Y169351D01*
X151500D01*
X150875Y169664D01*
X150563Y169976D01*
X150250Y170601D01*
Y171851D01*
X150563Y172476D01*
X150875Y172789D01*
X151500Y173101D01*
X152125D01*
X152750Y172789D01*
X153063Y172476D01*
X153375Y171851D01*
X150250Y273721D02*
X151813Y277471D01*
X153375Y273721D01*
X150875Y275284D02*
X152750D01*
X155250Y274346D02*
X155563Y274034D01*
X156187Y273721D01*
X156813Y274034D01*
X157125Y274346D01*
Y277471D01*
X157750D01*
X157125D02*
X155875D01*
X150250Y304981D02*
X151813Y308731D01*
X153375Y304981D01*
X150875Y306544D02*
X152750D01*
X155250Y305606D02*
X155563Y305294D01*
X156187Y304981D01*
X156813Y305294D01*
X157125Y305606D01*
Y308731D01*
X157750D01*
X157125D02*
X155875D01*
X156594Y143795D02*
X156281Y143483D01*
X155656Y143170D01*
X154719D01*
X154094Y143483D01*
X153781Y143795D01*
X153469Y144420D01*
Y145670D01*
X153781Y146295D01*
X154094Y146608D01*
X154719Y146920D01*
X155656D01*
X156281Y146608D01*
X156594Y146295D01*
X155250Y171851D02*
X156813Y175601D01*
X158375Y171851D01*
X155875Y173414D02*
X157750D01*
X160250Y171851D02*
X163375Y175601D01*
X160250D02*
X163375Y171851D01*
X158375Y189976D02*
X158063Y189664D01*
X157437Y189351D01*
X156500D01*
X155875Y189664D01*
X155563Y189976D01*
X155250Y190601D01*
Y191851D01*
X155563Y192476D01*
X155875Y192789D01*
X156500Y193101D01*
X157437D01*
X158063Y192789D01*
X158375Y192476D01*
X157437Y220914D02*
X158375D01*
Y220601D01*
X158063Y219976D01*
X157750Y219664D01*
X157125Y219351D01*
X156500D01*
X155875Y219664D01*
X155563Y219976D01*
X155250Y220601D01*
Y221851D01*
X155563Y222476D01*
X155875Y222789D01*
X156500Y223101D01*
X157125D01*
X157750Y222789D01*
X158063Y222476D01*
X158375Y221851D01*
Y249976D02*
X158063Y249664D01*
X157437Y249351D01*
X156500D01*
X155875Y249664D01*
X155563Y249976D01*
X155250Y250601D01*
Y251851D01*
X155563Y252476D01*
X155875Y252789D01*
X156500Y253101D01*
X157437D01*
X158063Y252789D01*
X158375Y252476D01*
X161987Y154976D02*
X161675Y154664D01*
X161050Y154351D01*
X160112D01*
X159487Y154664D01*
X159175Y154976D01*
X158862Y155601D01*
Y156851D01*
X159175Y157476D01*
X159487Y157789D01*
X160112Y158101D01*
X161050D01*
X161675Y157789D01*
X161987Y157476D01*
X162437Y170914D02*
X163375D01*
Y170601D01*
X163063Y169976D01*
X162750Y169664D01*
X162125Y169351D01*
X161500D01*
X160875Y169664D01*
X160563Y169976D01*
X160250Y170601D01*
Y171851D01*
X160563Y172476D01*
X160875Y172789D01*
X161500Y173101D01*
X162125D01*
X162750Y172789D01*
X163063Y172476D01*
X163375Y171851D01*
X160250Y237851D02*
Y241601D01*
X163375D01*
X162750Y239726D02*
X160250D01*
Y237851D02*
X163375D01*
X160250Y273721D02*
X161813Y277471D01*
X163375Y273721D01*
X160875Y275284D02*
X162750D01*
X165250Y274346D02*
X165563Y274034D01*
X166187Y273721D01*
X166813Y274034D01*
X167125Y274346D01*
Y277471D01*
X167750D01*
X167125D02*
X165875D01*
X160250Y304981D02*
X161813Y308731D01*
X163375Y304981D01*
X160875Y306544D02*
X162750D01*
X165250Y305606D02*
X165563Y305294D01*
X166187Y304981D01*
X166813Y305294D01*
X167125Y305606D01*
Y308731D01*
X167750D01*
X167125D02*
X165875D01*
X167381Y143795D02*
X167069Y143483D01*
X166443Y143170D01*
X165506D01*
X164881Y143483D01*
X164569Y143795D01*
X164256Y144420D01*
Y145670D01*
X164569Y146295D01*
X164881Y146608D01*
X165506Y146920D01*
X166443D01*
X167069Y146608D01*
X167381Y146295D01*
X165250Y171851D02*
X166813Y175601D01*
X168375Y171851D01*
X165875Y173414D02*
X167750D01*
X170250Y171851D02*
X173375Y175601D01*
X170250D02*
X173375Y171851D01*
X168375Y189976D02*
X168063Y189664D01*
X167437Y189351D01*
X166500D01*
X165875Y189664D01*
X165563Y189976D01*
X165250Y190601D01*
Y191851D01*
X165563Y192476D01*
X165875Y192789D01*
X166500Y193101D01*
X167437D01*
X168063Y192789D01*
X168375Y192476D01*
X167437Y220914D02*
X168375D01*
Y220601D01*
X168063Y219976D01*
X167750Y219664D01*
X167125Y219351D01*
X166500D01*
X165875Y219664D01*
X165563Y219976D01*
X165250Y220601D01*
Y221851D01*
X165563Y222476D01*
X165875Y222789D01*
X166500Y223101D01*
X167125D01*
X167750Y222789D01*
X168063Y222476D01*
X168375Y221851D01*
Y249976D02*
X168063Y249664D01*
X167437Y249351D01*
X166500D01*
X165875Y249664D01*
X165563Y249976D01*
X165250Y250601D01*
Y251851D01*
X165563Y252476D01*
X165875Y252789D01*
X166500Y253101D01*
X167437D01*
X168063Y252789D01*
X168375Y252476D01*
X169250Y233851D02*
Y237601D01*
X172375D01*
X171750Y235726D02*
X169250D01*
Y233851D02*
X172375D01*
X172775Y154976D02*
X172462Y154664D01*
X171837Y154351D01*
X170900D01*
X170275Y154664D01*
X169962Y154976D01*
X169650Y155601D01*
Y156851D01*
X169962Y157476D01*
X170275Y157789D01*
X170900Y158101D01*
X171837D01*
X172462Y157789D01*
X172775Y157476D01*
X172437Y170914D02*
X173375D01*
Y170601D01*
X173063Y169976D01*
X172750Y169664D01*
X172125Y169351D01*
X171500D01*
X170875Y169664D01*
X170563Y169976D01*
X170250Y170601D01*
Y171851D01*
X170563Y172476D01*
X170875Y172789D01*
X171500Y173101D01*
X172125D01*
X172750Y172789D01*
X173063Y172476D01*
X173375Y171851D01*
X172437Y208414D02*
X173375D01*
Y208101D01*
X173063Y207476D01*
X172750Y207164D01*
X172125Y206851D01*
X171500D01*
X170875Y207164D01*
X170563Y207476D01*
X170250Y208101D01*
Y209351D01*
X170563Y209976D01*
X170875Y210289D01*
X171500Y210601D01*
X172125D01*
X172750Y210289D01*
X173063Y209976D01*
X173375Y209351D01*
X170250Y273721D02*
X171813Y277471D01*
X173375Y273721D01*
X170875Y275284D02*
X172750D01*
X175250Y274346D02*
X175563Y274034D01*
X176187Y273721D01*
X176813Y274034D01*
X177125Y274346D01*
Y277471D01*
X177750D01*
X177125D02*
X175875D01*
X170250Y304981D02*
X171813Y308731D01*
X173375Y304981D01*
X170875Y306544D02*
X172750D01*
X175250Y305606D02*
X175563Y305294D01*
X176187Y304981D01*
X176813Y305294D01*
X177125Y305606D01*
Y308731D01*
X177750D01*
X177125D02*
X175875D01*
X177437Y130914D02*
X178375D01*
Y130601D01*
X178063Y129976D01*
X177750Y129664D01*
X177125Y129351D01*
X176500D01*
X175875Y129664D01*
X175563Y129976D01*
X175250Y130601D01*
Y131851D01*
X175563Y132476D01*
X175875Y132789D01*
X176500Y133101D01*
X177125D01*
X177750Y132789D01*
X178063Y132476D01*
X178375Y131851D01*
X175250Y171851D02*
X176813Y175601D01*
X178375Y171851D01*
X175875Y173414D02*
X177750D01*
X180250Y171851D02*
X183375Y175601D01*
X180250D02*
X183375Y171851D01*
X178375Y189976D02*
X178063Y189664D01*
X177437Y189351D01*
X176500D01*
X175875Y189664D01*
X175563Y189976D01*
X175250Y190601D01*
Y191851D01*
X175563Y192476D01*
X175875Y192789D01*
X176500Y193101D01*
X177437D01*
X178063Y192789D01*
X178375Y192476D01*
Y249976D02*
X178063Y249664D01*
X177437Y249351D01*
X176500D01*
X175875Y249664D01*
X175563Y249976D01*
X175250Y250601D01*
Y251851D01*
X175563Y252476D01*
X175875Y252789D01*
X176500Y253101D01*
X177437D01*
X178063Y252789D01*
X178375Y252476D01*
X177437Y290914D02*
X178375D01*
Y290601D01*
X178063Y289976D01*
X177750Y289664D01*
X177125Y289351D01*
X176500D01*
X175875Y289664D01*
X175563Y289976D01*
X175250Y290601D01*
Y291851D01*
X175563Y292476D01*
X175875Y292789D01*
X176500Y293101D01*
X177125D01*
X177750Y292789D01*
X178063Y292476D01*
X178375Y291851D01*
X177437Y310914D02*
X178375D01*
Y310601D01*
X178063Y309976D01*
X177750Y309664D01*
X177125Y309351D01*
X176500D01*
X175875Y309664D01*
X175563Y309976D01*
X175250Y310601D01*
Y311851D01*
X175563Y312476D01*
X175875Y312789D01*
X176500Y313101D01*
X177125D01*
X177750Y312789D01*
X178063Y312476D01*
X178375Y311851D01*
X182437Y158013D02*
X183375D01*
Y157700D01*
X183063Y157076D01*
X182750Y156763D01*
X182125Y156450D01*
X181500D01*
X180875Y156763D01*
X180563Y157076D01*
X180250Y157700D01*
Y158950D01*
X180563Y159576D01*
X180875Y159888D01*
X181500Y160200D01*
X182125D01*
X182750Y159888D01*
X183063Y159576D01*
X183375Y158950D01*
X182437Y170914D02*
X183375D01*
Y170601D01*
X183063Y169976D01*
X182750Y169664D01*
X182125Y169351D01*
X181500D01*
X180875Y169664D01*
X180563Y169976D01*
X180250Y170601D01*
Y171851D01*
X180563Y172476D01*
X180875Y172789D01*
X181500Y173101D01*
X182125D01*
X182750Y172789D01*
X183063Y172476D01*
X183375Y171851D01*
X180250Y273721D02*
X181813Y277471D01*
X183375Y273721D01*
X180875Y275284D02*
X182750D01*
X185250Y274346D02*
X185563Y274034D01*
X186187Y273721D01*
X186813Y274034D01*
X187125Y274346D01*
Y277471D01*
X187750D01*
X187125D02*
X185875D01*
X180250Y304981D02*
X181813Y308731D01*
X183375Y304981D01*
X180875Y306544D02*
X182750D01*
X185250Y305606D02*
X185563Y305294D01*
X186187Y304981D01*
X186813Y305294D01*
X187125Y305606D01*
Y308731D01*
X187750D01*
X187125D02*
X185875D01*
X184937Y180914D02*
X185875D01*
Y180601D01*
X185563Y179976D01*
X185250Y179664D01*
X184625Y179351D01*
X184000D01*
X183375Y179664D01*
X183063Y179976D01*
X182750Y180601D01*
Y181851D01*
X183063Y182476D01*
X183375Y182789D01*
X184000Y183101D01*
X184625D01*
X185250Y182789D01*
X185563Y182476D01*
X185875Y181851D01*
X185250Y171851D02*
X186813Y175601D01*
X188375Y171851D01*
X185875Y173414D02*
X187750D01*
X190250Y171851D02*
X193375Y175601D01*
X190250D02*
X193375Y171851D01*
X188375Y189976D02*
X188063Y189664D01*
X187437Y189351D01*
X186500D01*
X185875Y189664D01*
X185563Y189976D01*
X185250Y190601D01*
Y191851D01*
X185563Y192476D01*
X185875Y192789D01*
X186500Y193101D01*
X187437D01*
X188063Y192789D01*
X188375Y192476D01*
Y249976D02*
X188063Y249664D01*
X187437Y249351D01*
X186500D01*
X185875Y249664D01*
X185563Y249976D01*
X185250Y250601D01*
Y251851D01*
X185563Y252476D01*
X185875Y252789D01*
X186500Y253101D01*
X187437D01*
X188063Y252789D01*
X188375Y252476D01*
X187437Y260914D02*
X188375D01*
Y260601D01*
X188063Y259976D01*
X187750Y259664D01*
X187125Y259351D01*
X186500D01*
X185875Y259664D01*
X185563Y259976D01*
X185250Y260601D01*
Y261851D01*
X185563Y262476D01*
X185875Y262789D01*
X186500Y263101D01*
X187125D01*
X187750Y262789D01*
X188063Y262476D01*
X188375Y261851D01*
X192367Y180914D02*
X193304D01*
Y180601D01*
X192992Y179976D01*
X192679Y179664D01*
X192054Y179351D01*
X191429D01*
X190804Y179664D01*
X190492Y179976D01*
X190179Y180601D01*
Y181851D01*
X190492Y182476D01*
X190804Y182789D01*
X191429Y183101D01*
X192054D01*
X192679Y182789D01*
X192992Y182476D01*
X193304Y181851D01*
X192437Y208414D02*
X193375D01*
Y208101D01*
X193063Y207476D01*
X192750Y207164D01*
X192125Y206851D01*
X191500D01*
X190875Y207164D01*
X190563Y207476D01*
X190250Y208101D01*
Y209351D01*
X190563Y209976D01*
X190875Y210289D01*
X191500Y210601D01*
X192125D01*
X192750Y210289D01*
X193063Y209976D01*
X193375Y209351D01*
X190250Y273721D02*
X191813Y277471D01*
X193375Y273721D01*
X190875Y275284D02*
X192750D01*
X195250Y274346D02*
X195563Y274034D01*
X196187Y273721D01*
X196813Y274034D01*
X197125Y274346D01*
Y277471D01*
X197750D01*
X197125D02*
X195875D01*
X190250Y304981D02*
X191813Y308731D01*
X193375Y304981D01*
X190875Y306544D02*
X192750D01*
X195250Y305606D02*
X195563Y305294D01*
X196187Y304981D01*
X196813Y305294D01*
X197125Y305606D01*
Y308731D01*
X197750D01*
X197125D02*
X195875D01*
X192491Y220914D02*
X193429D01*
Y220601D01*
X193117Y219976D01*
X192804Y219664D01*
X192179Y219351D01*
X191554D01*
X190929Y219664D01*
X190617Y219976D01*
X190304Y220601D01*
Y221851D01*
X190617Y222476D01*
X190929Y222789D01*
X191554Y223101D01*
X192179D01*
X192804Y222789D01*
X193117Y222476D01*
X193429Y221851D01*
X194000Y263101D02*
Y266851D01*
X197125D01*
X196500Y264976D02*
X194000D01*
Y263101D02*
X197125D01*
X195250Y171851D02*
X196813Y175601D01*
X198375Y171851D01*
X195875Y173414D02*
X197750D01*
X200250Y171851D02*
X203375Y175601D01*
X200250D02*
X203375Y171851D01*
X198375Y189976D02*
X198063Y189664D01*
X197437Y189351D01*
X196500D01*
X195875Y189664D01*
X195563Y189976D01*
X195250Y190601D01*
Y191851D01*
X195563Y192476D01*
X195875Y192789D01*
X196500Y193101D01*
X197437D01*
X198063Y192789D01*
X198375Y192476D01*
Y249976D02*
X198063Y249664D01*
X197437Y249351D01*
X196500D01*
X195875Y249664D01*
X195563Y249976D01*
X195250Y250601D01*
Y251851D01*
X195563Y252476D01*
X195875Y252789D01*
X196500Y253101D01*
X197437D01*
X198063Y252789D01*
X198375Y252476D01*
X197268Y148761D02*
X198830Y152511D01*
X200393Y148761D01*
X197893Y150323D02*
X199768D01*
X202268Y148761D02*
Y152511D01*
Y150636D02*
X205393D01*
Y148761D02*
Y152511D01*
X200250Y273721D02*
X201813Y277471D01*
X203375Y273721D01*
X200875Y275284D02*
X202750D01*
X205250Y274346D02*
X205563Y274034D01*
X206187Y273721D01*
X206813Y274034D01*
X207125Y274346D01*
Y277471D01*
X207750D01*
X207125D02*
X205875D01*
X200250Y304981D02*
X201813Y308731D01*
X203375Y304981D01*
X200875Y306544D02*
X202750D01*
X205250Y305606D02*
X205563Y305294D01*
X206187Y304981D01*
X206813Y305294D01*
X207125Y305606D01*
Y308731D01*
X207750D01*
X207125D02*
X205875D01*
X207437Y130914D02*
X208375D01*
Y130601D01*
X208063Y129976D01*
X207750Y129664D01*
X207125Y129351D01*
X206500D01*
X205875Y129664D01*
X205563Y129976D01*
X205250Y130601D01*
Y131851D01*
X205563Y132476D01*
X205875Y132789D01*
X206500Y133101D01*
X207125D01*
X207750Y132789D01*
X208063Y132476D01*
X208375Y131851D01*
X205250Y171851D02*
X206813Y175601D01*
X208375Y171851D01*
X205875Y173414D02*
X207750D01*
X210250Y171851D02*
X213375Y175601D01*
X210250D02*
X213375Y171851D01*
X207437Y180914D02*
X208375D01*
Y180601D01*
X208063Y179976D01*
X207750Y179664D01*
X207125Y179351D01*
X206500D01*
X205875Y179664D01*
X205563Y179976D01*
X205250Y180601D01*
Y181851D01*
X205563Y182476D01*
X205875Y182789D01*
X206500Y183101D01*
X207125D01*
X207750Y182789D01*
X208063Y182476D01*
X208375Y181851D01*
Y189976D02*
X208063Y189664D01*
X207437Y189351D01*
X206500D01*
X205875Y189664D01*
X205563Y189976D01*
X205250Y190601D01*
Y191851D01*
X205563Y192476D01*
X205875Y192789D01*
X206500Y193101D01*
X207437D01*
X208063Y192789D01*
X208375Y192476D01*
Y249976D02*
X208063Y249664D01*
X207437Y249351D01*
X206500D01*
X205875Y249664D01*
X205563Y249976D01*
X205250Y250601D01*
Y251851D01*
X205563Y252476D01*
X205875Y252789D01*
X206500Y253101D01*
X207437D01*
X208063Y252789D01*
X208375Y252476D01*
X207437Y290914D02*
X208375D01*
Y290601D01*
X208063Y289976D01*
X207750Y289664D01*
X207125Y289351D01*
X206500D01*
X205875Y289664D01*
X205563Y289976D01*
X205250Y290601D01*
Y291851D01*
X205563Y292476D01*
X205875Y292789D01*
X206500Y293101D01*
X207125D01*
X207750Y292789D01*
X208063Y292476D01*
X208375Y291851D01*
X207437Y310897D02*
X208375D01*
Y310584D01*
X208063Y309959D01*
X207750Y309647D01*
X207125Y309334D01*
X206500D01*
X205875Y309647D01*
X205563Y309959D01*
X205250Y310584D01*
Y311834D01*
X205563Y312459D01*
X205875Y312772D01*
X206500Y313084D01*
X207125D01*
X207750Y312772D01*
X208063Y312459D01*
X208375Y311834D01*
X218375Y189976D02*
X218063Y189664D01*
X217437Y189351D01*
X216500D01*
X215875Y189664D01*
X215563Y189976D01*
X215250Y190601D01*
Y191851D01*
X215563Y192476D01*
X215875Y192789D01*
X216500Y193101D01*
X217437D01*
X218063Y192789D01*
X218375Y192476D01*
X217437Y235914D02*
X218375D01*
Y235601D01*
X218063Y234976D01*
X217750Y234664D01*
X217125Y234351D01*
X216500D01*
X215875Y234664D01*
X215563Y234976D01*
X215250Y235601D01*
Y236851D01*
X215563Y237476D01*
X215875Y237789D01*
X216500Y238101D01*
X217125D01*
X217750Y237789D01*
X218063Y237476D01*
X218375Y236851D01*
Y249976D02*
X218063Y249664D01*
X217437Y249351D01*
X216500D01*
X215875Y249664D01*
X215563Y249976D01*
X215250Y250601D01*
Y251851D01*
X215563Y252476D01*
X215875Y252789D01*
X216500Y253101D01*
X217437D01*
X218063Y252789D01*
X218375Y252476D01*
X216116Y132938D02*
X217679Y136688D01*
X219241Y132938D01*
X216741Y134500D02*
X218616D01*
X221116Y136688D02*
X221429Y132938D01*
X222679Y134813D01*
X223929Y132938D01*
X224241Y136688D01*
X216116Y306166D02*
X217679Y309916D01*
X219241Y306166D01*
X216741Y307729D02*
X218616D01*
X221116Y309916D02*
X221429Y306166D01*
X222679Y308041D01*
X223929Y306166D01*
X224241Y309916D01*
X218687Y208414D02*
X219625D01*
Y208101D01*
X219313Y207476D01*
X219000Y207164D01*
X218375Y206851D01*
X217750D01*
X217125Y207164D01*
X216813Y207476D01*
X216500Y208101D01*
Y209351D01*
X216813Y209976D01*
X217125Y210289D01*
X217750Y210601D01*
X218375D01*
X219000Y210289D01*
X219313Y209976D01*
X219625Y209351D01*
X228375Y189976D02*
X228063Y189664D01*
X227437Y189351D01*
X226500D01*
X225875Y189664D01*
X225563Y189976D01*
X225250Y190601D01*
Y191851D01*
X225563Y192476D01*
X225875Y192789D01*
X226500Y193101D01*
X227437D01*
X228063Y192789D01*
X228375Y192476D01*
Y249976D02*
X228063Y249664D01*
X227437Y249351D01*
X226500D01*
X225875Y249664D01*
X225563Y249976D01*
X225250Y250601D01*
Y251851D01*
X225563Y252476D01*
X225875Y252789D01*
X226500Y253101D01*
X227437D01*
X228063Y252789D01*
X228375Y252476D01*
X227437Y290914D02*
X228375D01*
Y290601D01*
X228063Y289976D01*
X227750Y289664D01*
X227125Y289351D01*
X226500D01*
X225875Y289664D01*
X225563Y289976D01*
X225250Y290601D01*
Y291851D01*
X225563Y292476D01*
X225875Y292789D01*
X226500Y293101D01*
X227125D01*
X227750Y292789D01*
X228063Y292476D01*
X228375Y291851D01*
X225801Y311839D02*
X233675Y303965D01*
Y122863D01*
X225801Y114989D01*
X44699D01*
X36825Y122863D01*
Y303965D01*
X44699Y311839D01*
X225801D01*
X231864Y132938D02*
X233427Y136688D01*
X234989Y132938D01*
X232489Y134500D02*
X234364D01*
X236864Y136688D02*
X238427Y132938D01*
X239989Y136688D01*
X231864Y306166D02*
X233427Y309916D01*
X234989Y306166D01*
X232489Y307729D02*
X234364D01*
X236864Y309916D02*
X238427Y306166D01*
X239989Y309916D01*
X237437Y148414D02*
X238375D01*
Y148101D01*
X238063Y147476D01*
X237750Y147164D01*
X237125Y146851D01*
X236500D01*
X235875Y147164D01*
X235563Y147476D01*
X235250Y148101D01*
Y149351D01*
X235563Y149976D01*
X235875Y150289D01*
X236500Y150601D01*
X237125D01*
X237750Y150289D01*
X238063Y149976D01*
X238375Y149351D01*
Y189976D02*
X238063Y189664D01*
X237437Y189351D01*
X236500D01*
X235875Y189664D01*
X235563Y189976D01*
X235250Y190601D01*
Y191851D01*
X235563Y192476D01*
X235875Y192789D01*
X236500Y193101D01*
X237437D01*
X238063Y192789D01*
X238375Y192476D01*
X237437Y208414D02*
X238375D01*
Y208101D01*
X238063Y207476D01*
X237750Y207164D01*
X237125Y206851D01*
X236500D01*
X235875Y207164D01*
X235563Y207476D01*
X235250Y208101D01*
Y209351D01*
X235563Y209976D01*
X235875Y210289D01*
X236500Y210601D01*
X237125D01*
X237750Y210289D01*
X238063Y209976D01*
X238375Y209351D01*
X237437Y235914D02*
X238375D01*
Y235601D01*
X238063Y234976D01*
X237750Y234664D01*
X237125Y234351D01*
X236500D01*
X235875Y234664D01*
X235563Y234976D01*
X235250Y235601D01*
Y236851D01*
X235563Y237476D01*
X235875Y237789D01*
X236500Y238101D01*
X237125D01*
X237750Y237789D01*
X238063Y237476D01*
X238375Y236851D01*
Y249976D02*
X238063Y249664D01*
X237437Y249351D01*
X236500D01*
X235875Y249664D01*
X235563Y249976D01*
X235250Y250601D01*
Y251851D01*
X235563Y252476D01*
X235875Y252789D01*
X236500Y253101D01*
X237437D01*
X238063Y252789D01*
X238375Y252476D01*
D02*
D85*
X42750Y143414D03*
Y153414D03*
Y163414D03*
Y173414D03*
Y183414D03*
Y193414D03*
Y213414D03*
Y223414D03*
Y263414D03*
Y273414D03*
Y283414D03*
X48636Y127000D03*
Y300229D03*
X60250Y143414D03*
Y148414D03*
Y158414D03*
Y268414D03*
Y278414D03*
X60368Y255722D03*
X64384Y127000D03*
Y300229D03*
X75250Y123414D03*
Y303397D03*
X77750Y153414D03*
Y163414D03*
Y173414D03*
Y183414D03*
Y213414D03*
Y223414D03*
Y233414D03*
Y243414D03*
Y253414D03*
Y273414D03*
X85250Y185914D03*
Y228414D03*
Y243414D03*
X88882Y142823D03*
X94065Y273414D03*
X101500Y225914D03*
X102750Y208414D03*
X105250Y123414D03*
Y153414D03*
Y185914D03*
Y303397D03*
X106500Y217164D03*
X107669Y243414D03*
Y258414D03*
X109750Y212164D03*
X112411Y273414D03*
X115250Y165914D03*
Y183414D03*
Y243414D03*
X116500Y148414D03*
X120250Y267784D03*
Y299044D03*
X121894Y137233D03*
X125250Y165914D03*
Y183414D03*
Y213414D03*
Y243414D03*
X127287Y148414D03*
X130250Y163414D03*
Y267784D03*
Y299044D03*
X132681Y137233D03*
X135250Y123414D03*
Y165914D03*
Y183414D03*
Y198414D03*
Y213414D03*
Y243414D03*
Y283414D03*
Y303414D03*
X138075Y148414D03*
X140250Y163414D03*
Y267784D03*
Y299044D03*
X143469Y137233D03*
X145250Y165914D03*
Y183414D03*
Y213414D03*
Y243414D03*
X148862Y148414D03*
X150250Y163414D03*
Y231914D03*
Y267784D03*
Y299044D03*
X154256Y137233D03*
X155250Y165914D03*
Y183414D03*
Y213414D03*
Y243414D03*
X159250Y227914D03*
X159650Y148414D03*
X160250Y163414D03*
Y200914D03*
Y267784D03*
Y299044D03*
X165250Y123414D03*
Y165914D03*
Y183414D03*
Y243414D03*
Y283414D03*
Y303414D03*
X170250Y150513D03*
Y163414D03*
Y267784D03*
Y299044D03*
X172750Y173414D03*
X175250Y165914D03*
Y183414D03*
Y243414D03*
Y253414D03*
X180179Y173414D03*
X180250Y200914D03*
Y267784D03*
Y299044D03*
X180304Y213414D03*
X184000Y257164D03*
X185250Y165914D03*
Y183414D03*
Y243414D03*
X187268Y142823D03*
X190250Y267784D03*
Y299044D03*
X195250Y123414D03*
Y165914D03*
Y173414D03*
Y183414D03*
Y243414D03*
Y283414D03*
Y303397D03*
X205250Y183414D03*
Y228414D03*
Y243414D03*
X206116Y127000D03*
Y300229D03*
X206500Y200914D03*
X215250Y183414D03*
Y243414D03*
Y283414D03*
X221864Y127000D03*
Y300229D03*
X225250Y140914D03*
Y183414D03*
Y200914D03*
Y228414D03*
Y243414D03*
X0Y0D02*
M02*
