G04 DesignSpark PCB PRO Gerber Version 10.0 Build 5299*
G04 #@! TF.Part,Single*
G04 #@! TF.FilePolarity,Positive*
%FSLAX35Y35*%
%MOIN*%
G04 #@! TA.AperFunction,ViaDrill*
%ADD78C,0.01181*%
%ADD77C,0.01600*%
G04 #@! TA.AperFunction,ComponentDrill*
%ADD136C,0.02874*%
%ADD130C,0.03307*%
%ADD81C,0.03937*%
%ADD83C,0.04331*%
G04 #@! TA.AperFunction,MechanicalDrill*
%ADD80C,0.07874*%
%ADD79C,0.12205*%
G04 #@! TA.AperFunction,ComponentDrill*
%ADD82C,0.12598*%
G04 #@! TD.AperFunction*
X0Y0D02*
D02*
D77*
X60368Y255722D03*
X75250Y123414D03*
Y303397D03*
X85250Y185914D03*
Y228414D03*
Y243414D03*
X94065Y273414D03*
X101500Y225914D03*
X105250Y123414D03*
Y153414D03*
Y185914D03*
Y303397D03*
X107669Y243414D03*
Y258414D03*
X112411Y273414D03*
X125250Y213414D03*
X130250Y163414D03*
X135250Y123414D03*
Y198414D03*
Y213414D03*
Y283414D03*
Y303414D03*
X140250Y163414D03*
X145250Y213414D03*
X150250Y163414D03*
X155250Y213414D03*
X160250Y163414D03*
Y200914D03*
X165250Y123414D03*
Y283414D03*
Y303414D03*
X170250Y150513D03*
Y163414D03*
X172750Y173414D03*
X175250Y253414D03*
X180179Y173414D03*
X180250Y200914D03*
X180304Y213414D03*
X195250Y123414D03*
Y173414D03*
Y283414D03*
Y303397D03*
X205250Y228414D03*
X206500Y200914D03*
X215250Y283414D03*
X225250Y140914D03*
Y200914D03*
Y228414D03*
D02*
D78*
X42750Y143414D03*
Y153414D03*
Y163414D03*
Y173414D03*
Y183414D03*
Y193414D03*
Y213414D03*
Y223414D03*
Y263414D03*
Y273414D03*
Y283414D03*
X60250Y143414D03*
X77750Y153414D03*
Y163414D03*
Y173414D03*
Y183414D03*
Y213414D03*
Y223414D03*
Y233414D03*
Y243414D03*
Y253414D03*
Y273414D03*
X102750Y208414D03*
X106500Y217164D03*
X109750Y212164D03*
X150250Y231914D03*
X159250Y227914D03*
X184000Y257164D03*
D02*
D79*
X48636Y127000D03*
Y300229D03*
X221864Y127000D03*
Y300229D03*
D02*
D80*
X64384Y127000D03*
Y300229D03*
X206116Y127000D03*
Y300229D03*
D02*
D81*
X60250Y158414D03*
Y268414D03*
X115250Y183414D03*
Y243414D03*
X116500Y148414D03*
X121894Y137233D03*
X125250Y183414D03*
Y243414D03*
X127287Y148414D03*
X132681Y137233D03*
X135250Y183414D03*
Y243414D03*
X138075Y148414D03*
X143469Y137233D03*
X145250Y183414D03*
Y243414D03*
X148862Y148414D03*
X154256Y137233D03*
X155250Y183414D03*
Y243414D03*
X159650Y148414D03*
X165250Y183414D03*
Y243414D03*
X175250Y183414D03*
Y243414D03*
X185250Y183414D03*
Y243414D03*
X195250Y183414D03*
Y243414D03*
X205250Y183414D03*
Y243414D03*
X215250Y183414D03*
Y243414D03*
X225250Y183414D03*
Y243414D03*
D02*
D82*
X88882Y142823D03*
X187268D03*
D02*
D83*
X60250Y148414D03*
Y278414D03*
D02*
D130*
X115250Y165914D03*
X125250D03*
X135250D03*
X145250D03*
X155250D03*
X165250D03*
X175250D03*
X185250D03*
X195250D03*
D02*
D136*
X120250Y267784D03*
Y299044D03*
X130250Y267784D03*
Y299044D03*
X140250Y267784D03*
Y299044D03*
X150250Y267784D03*
Y299044D03*
X160250Y267784D03*
Y299044D03*
X170250Y267784D03*
Y299044D03*
X180250Y267784D03*
Y299044D03*
X190250Y267784D03*
Y299044D03*
X0Y0D02*
M02*
