G05
M48
;#@! TF.GenerationSoftware,DesignSpark,DesignSpark PCB PRO,10.0.5299
;#@! TF.CreationDate,2023-04-11T17:23:38--9:00*
;#@! TF.FileFunction,Plated,1,2,Buried
;FILE_FORMAT=3:5
;TYPE=PLATED
INCH,TZ
FMAT,2
T1C000.01181
T2C000.01600
T3C000.02874
T4C000.03307
T5C000.03937
T6C000.04331
T7C000.12598
%
T001
X0.42750Y1.43414
X0.42750Y1.53414
X0.42750Y1.63414
X0.42750Y1.73414
X0.42750Y1.83414
X0.42750Y1.93414
X0.42750Y2.13414
X0.42750Y2.23414
X0.42750Y2.63414
X0.42750Y2.73414
X0.42750Y2.83414
X0.60250Y1.43414
X0.77750Y1.53414
X0.77750Y1.63414
X0.77750Y1.73414
X0.77750Y1.83414
X0.77750Y2.13414
X0.77750Y2.23414
X0.77750Y2.33414
X0.77750Y2.43414
X0.77750Y2.53414
X0.77750Y2.73414
X1.02750Y2.08414
X1.06500Y2.17164
X1.09750Y2.12164
X1.50250Y2.31914
X1.59250Y2.27914
X1.84000Y2.57164
T002
X0.60368Y2.55722
X0.75250Y1.23414
X0.75250Y3.03397
X0.85250Y1.85914
X0.85250Y2.28414
X0.85250Y2.43414
X0.94065Y2.73414
X1.01500Y2.25914
X1.05250Y1.23414
X1.05250Y1.53414
X1.05250Y1.85914
X1.05250Y3.03397
X1.07669Y2.43414
X1.07669Y2.58414
X1.12411Y2.73414
X1.25250Y2.13414
X1.30250Y1.63414
X1.35250Y1.23414
X1.35250Y1.98414
X1.35250Y2.13414
X1.35250Y2.83414
X1.35250Y3.03414
X1.40250Y1.63414
X1.45250Y2.13414
X1.50250Y1.63414
X1.55250Y2.13414
X1.60250Y1.63414
X1.60250Y2.00914
X1.65250Y1.23414
X1.65250Y2.83414
X1.65250Y3.03414
X1.70250Y1.50513
X1.70250Y1.63414
X1.72750Y1.73414
X1.75250Y2.53414
X1.80179Y1.73414
X1.80250Y2.00914
X1.80304Y2.13414
X1.95250Y1.23414
X1.95250Y1.73414
X1.95250Y2.83414
X1.95250Y3.03397
X2.05250Y2.28414
X2.06500Y2.00914
X2.15250Y2.83414
X2.25250Y1.40914
X2.25250Y2.00914
X2.25250Y2.28414
T003
X1.20250Y2.67784
X1.20250Y2.99044
X1.30250Y2.67784
X1.30250Y2.99044
X1.40250Y2.67784
X1.40250Y2.99044
X1.50250Y2.67784
X1.50250Y2.99044
X1.60250Y2.67784
X1.60250Y2.99044
X1.70250Y2.67784
X1.70250Y2.99044
X1.80250Y2.67784
X1.80250Y2.99044
X1.90250Y2.67784
X1.90250Y2.99044
T004
X1.15250Y1.65914
X1.25250Y1.65914
X1.35250Y1.65914
X1.45250Y1.65914
X1.55250Y1.65914
X1.65250Y1.65914
X1.75250Y1.65914
X1.85250Y1.65914
X1.95250Y1.65914
T005
X0.60250Y1.58414
X0.60250Y2.68414
X1.15250Y1.83414
X1.15250Y2.43414
X1.16500Y1.48414
X1.21894Y1.37233
X1.25250Y1.83414
X1.25250Y2.43414
X1.27287Y1.48414
X1.32681Y1.37233
X1.35250Y1.83414
X1.35250Y2.43414
X1.38075Y1.48414
X1.43469Y1.37233
X1.45250Y1.83414
X1.45250Y2.43414
X1.48862Y1.48414
X1.54256Y1.37233
X1.55250Y1.83414
X1.55250Y2.43414
X1.59650Y1.48414
X1.65250Y1.83414
X1.65250Y2.43414
X1.75250Y1.83414
X1.75250Y2.43414
X1.85250Y1.83414
X1.85250Y2.43414
X1.95250Y1.83414
X1.95250Y2.43414
X2.05250Y1.83414
X2.05250Y2.43414
X2.15250Y1.83414
X2.15250Y2.43414
X2.25250Y1.83414
X2.25250Y2.43414
T006
X0.60250Y1.48414
X0.60250Y2.78414
T007
X0.88882Y1.42823
X1.87268Y1.42823
M30
